<?xml version="1.0" encoding="utf-8"?>
<!-- Generator: Adobe Illustrator 24.0.0, SVG Export Plug-In . SVG Version: 6.00 Build 0)  -->
<svg version="1.1" id="Layer_1" xmlns="http://www.w3.org/2000/svg" xmlns:xlink="http://www.w3.org/1999/xlink" x="0px" y="0px"
	 viewBox="0 0 1280 1280" style="enable-background:new 0 0 1280 1280;" xml:space="preserve">
<style type="text/css">
	.st0{fill:#FFFFFF;}
</style>
<path class="st0" d="M1168.6,472.5c-17-20.1-41.7-31.7-67.7-31.7H843.6V330.6c0-51.9-22-100.6-61.9-137.2
	c-39.1-35.9-90.7-55.6-145.3-55.6c-54.6,0-106.2,19.7-145.3,55.6c-39.9,36.6-61.9,85.3-61.9,137.2v110.1h-243
	c-26,0-50.7,11.6-67.7,31.7c-17.8,21-25.3,48.7-20.8,76.1l52.2,396l0.1,0.5c9.2,54.9,36.8,104.9,77.7,140.9
	c41.3,36.3,93.7,56.2,147.8,56.2h522.1c54,0,106.5-20,147.8-56.2c40.9-36,68.5-86,77.7-140.9l66.4-396.2
	C1194,521.4,1186.4,493.5,1168.6,472.5z M897.4,1074.4H375.4c-78.1,0-144.8-59-158.5-140.2l-52.2-396l-0.1-0.5
	c-1.3-7.8,0.8-15.6,5.7-21.4c4.2-5,9.8-7.7,15.9-7.7h243v76.3c0,18.7,15.2,33.9,33.9,33.9s33.9-15.2,33.9-33.9v-76.3h278.8v76.3
	c0,18.7,15.2,33.9,33.9,33.9c18.7,0,33.9-15.2,33.9-33.9v-76.3h257.2c6.1,0,11.7,2.7,15.9,7.7c4.9,5.8,7,13.6,5.7,21.4L1056,933.9
	C1042.4,1015.3,975.7,1074.4,897.4,1074.4z M636.4,205.6c76.9,0,139.4,56.1,139.4,125v110.1H497V330.6
	C497,261.7,559.6,205.6,636.4,205.6z"/>
</svg>
