<?xml version="1.0" encoding="utf-8"?>
<!-- Generator: Adobe Illustrator 24.0.0, SVG Export Plug-In . SVG Version: 6.00 Build 0)  -->
<svg version="1.1" id="Layer_1" xmlns="http://www.w3.org/2000/svg" xmlns:xlink="http://www.w3.org/1999/xlink" x="0px" y="0px"
	 viewBox="0 0 1280 1280" style="enable-background:new 0 0 1280 1280;" xml:space="preserve">
<style type="text/css">
	.st0{fill:#AAAAAA;}
</style>
<path class="st0" d="M1147.1,622c-15.2-22.3-36.1-39.7-60.6-50.6c-3.8-47.6-15.2-93.9-33.8-137.9c-19.3-45.7-45.9-87.5-79-124.4
	c2.5-4.6,3.9-9.9,3.9-15.3c0-8.5-3.3-16.6-9.3-22.6c-1.1-1.1-2.2-2.1-3.4-3c-41.4-39.7-89.2-71.1-142-93.4c-58-24.5-119.6-37-183-37
	c-63.4,0-125,12.4-183,37c-52.9,22.4-100.8,53.9-142.3,93.8c-0.4,0.4-0.7,0.7-1.1,1.1l-0.2,0.2c-0.4,0.3-0.9,0.8-1.4,1.3
	c-0.2,0.2-0.5,0.5-0.7,0.8l-0.9,0.9c-4.5,4.5-9.5,12.9-9,21.7c0.4,5.4,2.5,10.3,5,14.4c-33.2,37-59.8,78.9-79.2,124.6
	c-18.6,44-30,90.4-33.8,138.1c-24.4,10.9-45.2,28.3-60.3,50.6c-16.4,24.1-25,52.1-25,81.1v24.5c0,36.4,13.7,71.2,38.5,98
	c22,23.7,51.3,39.4,83,44.4c7.7,19.1,18.5,34.7,32,46.4c18.1,15.6,40,23.6,65.3,23.6h3.1c2.3,0,4.8-0.1,7.2-0.2
	c9.6-0.6,19.2-2.4,28.4-5.3c44.6-14.3,71.2-55.8,71.2-111.1V607.4c0-32.4-10.6-61.9-30-83.2c-19.6-21.5-46.9-33.4-76.9-33.4h-3.1
	c-25.3,0-47.2,7.9-65.3,23.6c-2,1.7-3.9,3.6-5.8,5.5c5.1-22.3,12.2-44.2,21.1-65.3c16.5-39.1,39.1-75,67.2-106.8
	c4.4,2.8,8.7,3.7,12,4c7.8,0.6,14.5-2.6,17.4-4.7l0,0l6.3-4.8l0.5-0.4c1.1-1.1,2.2-2.2,3.4-3.3c69.6-66.3,160.7-102.7,256.5-102.7
	s186.9,36.5,256.5,102.7c1.1,1.1,2.3,2.2,3.4,3.2l6.8,6l0.9,0.5c5.7,3.2,17.5,6.1,28.5-0.6c28.1,31.8,50.6,67.8,67.2,106.9
	c8.9,21,15.9,42.7,21,64.9c-1.7-1.7-3.5-3.4-5.4-5c-18.1-15.6-40-23.6-65.3-23.6h-3.1c-30,0-57.3,11.9-76.9,33.4
	c-19.3,21.3-30,50.8-30,83.2v216.2c0,25.6,5.9,49,17,67.8c12.3,20.8,31,35.7,54,43.2c9.1,3,18.6,4.8,28.3,5.4
	c2.6,0.2,5.2,0.3,7.6,0.3h3.1c19,0,36.1-4.5,51.1-13.3c-0.3,0.4-0.6,0.7-0.8,1.1c-45.5,59.7-128.1,93.2-239.2,97.1
	c-11.8-36.6-46.5-62.5-85.5-62.5h-77.2c-23.5,0-45.8,8.9-62.8,25c-17.1,16.2-27.1,38.1-27.9,61.5c-0.9,24.6,8,47.9,25.1,65.6
	c17.1,17.7,40,27.5,64.6,27.5h78.2c39.3,0,74.2-26.2,85.8-63.2c67.4-2.2,126.1-14.2,174.5-35.7c44.5-19.8,80.6-47.6,107.3-82.6
	c30.7-40.2,41.7-80.5,45.6-103.7c23.3-11.6,42.9-29,57-50.8c15.1-23.3,23.1-50.4,23.1-78.3v-24.5
	C1172.2,674.1,1163.5,646.1,1147.1,622z M950.4,544.6h3.1c39.1,0,53,33.8,53,62.8v216.2c0,13.2-3.2,56.7-44.7,62.2
	c-2.8,0.4-5.6,0.6-8.3,0.6h-3.1c-3.5,0-7-0.3-10.5-0.9c-27-4.6-42.4-27.1-42.4-61.8V607.4C897.4,578.4,911.3,544.6,950.4,544.6z
	 M1118.3,703.2v24.5c0,37.4-23.8,71.1-58,84.4V618.8c1.2,0.5,2.5,1,3.7,1.5C1097,634.7,1118.3,667.3,1118.3,703.2z M215.8,620.5
	c1.3-0.6,2.6-1.1,4-1.6v193.3c-34.3-13.2-58-46.9-58-84.4v-24.5C161.7,667.4,182.9,634.9,215.8,620.5z M326.6,544.6h3.1
	c39.1,0,53,33.8,53,62.8v216.2c0,34.8-15.5,57.4-42.7,61.9c-3.5,0.6-6.9,0.9-10.3,0.9h-3.1c-2.8,0-5.7-0.2-8.6-0.6
	c-41.2-5.7-44.4-49-44.4-62.1V607.4C273.6,578.4,287.5,544.6,326.6,544.6z M678.9,1088.3h-77.4c-19.5,0-35.6-14.9-36.6-33.9
	c-0.5-10,2.9-19.4,9.8-26.7c6.9-7.3,16.1-11.2,26.1-11.2h77.4c19.5,0,35.6,14.9,36.6,33.9c0.5,10-2.9,19.4-9.8,26.7
	C698.1,1084.4,688.9,1088.3,678.9,1088.3z"/>
</svg>
