<?xml version="1.0" encoding="utf-8"?>
<!-- Generator: Adobe Illustrator 24.0.0, SVG Export Plug-In . SVG Version: 6.00 Build 0)  -->
<svg version="1.1" id="Layer_1" xmlns="http://www.w3.org/2000/svg" xmlns:xlink="http://www.w3.org/1999/xlink" x="0px" y="0px"
	 viewBox="0 0 1280 1280" style="enable-background:new 0 0 1280 1280;" xml:space="preserve">
<style type="text/css">
	.st0{fill:#FFFFFF;}
</style>
<g>
	<g>
		<path class="st0" d="M144.3,629.2h51.3v102.6H303V629.2h51.6v247.6H303V774.2H195.6v102.6h-51.3V629.2z"/>
		<path class="st0" d="M507.5,880.2c-66,0-115.9-46.8-115.9-127.2c0-80.7,49.9-127.2,115.9-127.2c65.3,0,115.6,46.5,115.6,127.2
			C623.1,833.7,572.8,880.2,507.5,880.2z M507.5,671.3c-38.3,0-63.6,28.7-63.6,81.7c0,53,25.3,81.7,63.6,81.7s63.3-28.7,63.3-81.7
			C570.8,700,545.8,671.3,507.5,671.3z"/>
		<path class="st0" d="M723.6,629.2l68.7,167.9h2.7l68.7-167.9h63.6v247.6h-49.9V714.7h-2.1l-64.6,161.1h-34.2L712,714h-2.1v162.8
			H660V629.2H723.6z"/>
		<path class="st0" d="M969.1,629.2h166.2v42.4h-114.9v60.2h106.3v42.4h-106.3v60.2h115.2v42.4H969.1V629.2z"/>
	</g>
	<g>
		<path class="st0" d="M1025,516.2l-385-385l-385,385c-11.2,11.2-11.2,29.4,0,40.6c11.2,11.2,29.4,11.2,40.6,0L640,212.3
			l344.5,344.5c5.4,5.4,12.6,8.4,20.3,8.4s14.9-3,20.3-8.4C1036.2,545.6,1036.2,527.4,1025,516.2z"/>
		<polygon class="st0" points="939.6,1091.5 340.4,1091.5 340.4,929.1 283,929.1 283,1148.8 997,1148.8 997,929.1 939.6,929.1 		"/>
	</g>
</g>
</svg>
