<?xml version="1.0" encoding="utf-8"?>
<!-- Generator: Adobe Illustrator 24.0.0, SVG Export Plug-In . SVG Version: 6.00 Build 0)  -->
<svg version="1.1" id="Layer_1" xmlns="http://www.w3.org/2000/svg" xmlns:xlink="http://www.w3.org/1999/xlink" x="0px" y="0px"
	 viewBox="0 0 450 240" style="enable-background:new 0 0 450 240;" xml:space="preserve">
<style type="text/css">
	.st0{fill:#E30613;}
	.st1{fill:#FFFFFF;}
</style>
<rect class="st0" width="450" height="240"/>
<g>
	<path class="st1" d="M82.3,72.3h25v37.6h35.2V72.3h25.2v95.4h-25.2v-37.6h-35.2v37.6h-25V72.3z"/>
	<path class="st1" d="M230.2,169c-26.1,0-46.3-17.4-46.3-49c0-31.8,20.2-49,46.3-49c25.8,0,46.1,17.3,46.1,49
		C276.3,151.8,256,169,230.2,169z M230.2,92.8c-13.2,0-20.4,9.6-20.4,27.2c0,17.5,7.3,27.2,20.4,27.2c13.1,0,20.3-9.6,20.3-27.2
		C250.5,102.5,243.2,92.8,230.2,92.8z"/>
	<path class="st1" d="M285.4,72.3h82.3v20.3H339v75.1h-24.8V92.6h-28.7V72.3z"/>
</g>
</svg>
