<?xml version="1.0" encoding="utf-8"?>
<!-- Generator: Adobe Illustrator 24.0.0, SVG Export Plug-In . SVG Version: 6.00 Build 0)  -->
<svg version="1.1" id="Layer_1" xmlns="http://www.w3.org/2000/svg" xmlns:xlink="http://www.w3.org/1999/xlink" x="0px" y="0px"
	 viewBox="0 0 680 240" style="enable-background:new 0 0 680 240;" xml:space="preserve">
<style type="text/css">
	.st0{fill:#FFFFFF;}
</style>
<rect y="0" width="680" height="240"/>
<g>
	<path class="st0" d="M164.7,83.5H90V71.1h29.7V57h15.5v14.1h29.5V83.5z M158.2,112.8c-0.1,14.4-12.7,23.8-30.8,23.8
		c-18.3,0-30.9-9.5-30.9-23.8c0-14.5,12.7-24.1,30.9-24.1C145.5,88.6,158,98.3,158.2,112.8z M194.2,180.5h-85.7v-36.7H124v24.1h70.2
		V180.5z M111.5,112.8c0,7.5,6.3,12,15.9,11.8c9.6,0.1,16-4.3,16-11.8c0-7.7-6.4-12.1-16-12.1S111.5,105.1,111.5,112.8z M189.2,96.7
		h17.6v12.8h-17.6v41.7h-15.5V57.1h15.5V96.7z"/>
	<path class="st0" d="M296.3,116l-7.8,12.3c-14-4.7-24-14.4-29.4-26.2c-5.6,13.4-16.1,24.2-31.1,29.5l-8.1-12.3
		c20.2-7,30.9-24,30.9-40.6v-1h-26.2V65.2h68v12.5h-26.1v0.8C266.6,93.9,276.8,109.4,296.3,116z M326.3,159c0,15.2-16.3,24-43.1,24
		c-26.6,0-42.9-8.8-42.8-24c-0.1-15.2,16.2-24,42.8-24C310,135.1,326.3,143.8,326.3,159z M255.7,159c0,7.8,9.9,12,27.5,12
		s27.6-4.2,27.6-12c0-7.9-10-12.1-27.6-12.1S255.7,151.1,255.7,159z M325.8,131.8h-15.5V101h-21.5V88.4h21.5V57h15.5V131.8z"/>
	<path class="st0" d="M421.8,80.4h-11v37.2c5.5-0.3,10.9-0.9,16-1.5l1.1,11.4c-25.4,4.2-54.4,4.7-75.7,4.7l-1.7-12.5l14.5-0.1V80.4
		h-11.1V68h67.9V80.4z M455.2,180.5h-85.7V141H385v26.9h70.2V180.5z M395.7,118.6V80.4h-15.7v38.7
		C385.1,119.1,390.4,118.9,395.7,118.6z M450.2,93.5h17.6v13h-17.6v43.3h-15.5V57.1h15.5V93.5z"/>
	<path class="st0" d="M534.7,150.5h-49.5V70.7h49.5V150.5z M499.7,138.3h20.5V82.9h-20.5V138.3z M590,183h-14.9v-64.5h-13.4v58.4
		h-14.6V59.2h14.6v46.4h13.4V57H590V183z"/>
</g>
</svg>
