<?xml version="1.0" encoding="utf-8"?>
<!-- Generator: Adobe Illustrator 24.0.0, SVG Export Plug-In . SVG Version: 6.00 Build 0)  -->
<svg version="1.1" id="Layer_1" xmlns="http://www.w3.org/2000/svg" xmlns:xlink="http://www.w3.org/1999/xlink" x="0px" y="0px"
	 viewBox="0 0 1280 1280" style="enable-background:new 0 0 1280 1280;" xml:space="preserve">
<style type="text/css">
	.st0{fill:#FFFFFF;}
</style>
<path class="st0" d="M859.8,382.5v-24.1c0-29.5-5.3-58.1-15.6-85.1c-1.4-3.7-2.9-7.3-4.5-10.8c-4.5-10.5-9.9-20.6-16.1-30.1
	c-6.5-10.2-13.8-19.8-21.9-28.8c-18.2-20.2-39.4-36-62.9-47.1c-24.4-11.5-50.3-17.3-76.9-17.3h-43.6c-26.6,0-52.5,5.8-76.9,17.3
	c-23.5,11.1-44.7,26.9-62.9,47.1c-8.1,9-15.4,18.6-21.9,28.8c-6.2,9.5-11.6,19.5-16.1,30.1c-1.6,3.6-3.1,7.2-4.5,10.8
	c-10.4,27-15.6,55.6-15.6,85.1v24.1c0,29.3,4.7,57.9,14,85c9,29.6,24.2,56.5,44.1,79.3c2.1,2.5,4.3,5,6.5,7.5
	c20.2,22.4,43.7,40,69.9,52.2c27.1,12.7,55.8,19.2,85.3,19.2c29.5,0,58.3-6.5,85.3-19.2c26.1-12.3,49.6-29.9,69.9-52.2
	c2.2-2.4,4.4-4.9,6.5-7.5c19.9-22.7,35.2-49.7,44.1-79.3C855.1,440.3,859.8,411.8,859.8,382.5z"/>
<g>
	<path class="st0" d="M704.2,685.9H582.1c-247.4,0-450.8,202.6-459.9,453.8c-0.1,1.8,1.4,3.3,3.1,3.3l1035.6,0
		c1.8,0,3.2-1.5,3.1-3.3C1155.1,888.5,951.6,685.9,704.2,685.9z"/>
</g>
</svg>
