<?xml version="1.0" encoding="utf-8"?>
<!-- Generator: Adobe Illustrator 24.0.0, SVG Export Plug-In . SVG Version: 6.00 Build 0)  -->
<svg version="1.1" id="Layer_1" xmlns="http://www.w3.org/2000/svg" xmlns:xlink="http://www.w3.org/1999/xlink" x="0px" y="0px"
	 viewBox="0 0 1280 1280" style="enable-background:new 0 0 1280 1280;" xml:space="preserve">
<style type="text/css">
	.st0{fill:#FFFFFF;}
</style>
<g>
	<polygon class="st0" points="335.4,543.8 227.1,543.8 227.1,335.5 175,335.5 175,586.8 335.4,586.8 	"/>
	<path class="st0" d="M589.2,461.2c0-81.9-51-129.1-117.3-129.1c-67,0-117.6,47.2-117.6,129.1c0,81.6,50.7,129.1,117.6,129.1
		C538.2,590.3,589.2,543.1,589.2,461.2z M407.4,461.2c0-53.8,25.7-82.9,64.6-82.9s64.2,29.2,64.2,82.9c0,53.8-25.3,82.9-64.2,82.9
		S407.4,515,407.4,461.2z"/>
	<path class="st0" d="M856.8,461.2c0-81.9-51-129.1-117.3-129.1c-67,0-117.6,47.2-117.6,129.1c0,81.6,50.7,129.1,117.6,129.1
		C805.8,590.3,856.8,543.1,856.8,461.2z M675,461.2c0-53.8,25.7-82.9,64.6-82.9s64.2,29.2,64.2,82.9c0,53.8-25.3,82.9-64.2,82.9
		S675,515,675,461.2z"/>
	<polygon class="st0" points="894.3,335.5 894.3,586.8 946.4,586.8 946.4,515 972.7,483 1042.5,586.8 1105,586.8 1010.2,448 
		1103.9,335.5 1041.1,335.5 949.8,446.9 946.4,446.9 946.4,335.5 	"/>
	<path class="st0" d="M292.1,782.1v-2.4c26-5.9,45.1-24.3,45.1-53.8c0-37.8-27.8-64.5-83.3-64.5H154v251.3h106.5
		c56.9,0,86.8-29.5,86.8-69.4C347.3,806,320.5,783.5,292.1,782.1z M206,703.6h41.3c23.9,0,37.1,12.5,37.1,30.5
		c0,20.1-16.3,32.3-38.2,32.3H206V703.6z M250.1,869.5H206v-67.3h45.5c25.7,0,41.6,14.9,41.6,36.1
		C293.1,857,280.3,869.5,250.1,869.5z"/>
	<path class="st0" d="M493,916c66.3,0,117.3-47.2,117.3-129.1c0-81.9-51-129.1-117.3-129.1c-67,0-117.6,47.2-117.6,129.1
		C375.4,868.5,426,916,493,916z M493,704c38.9,0,64.2,29.2,64.2,82.9s-25.3,82.9-64.2,82.9s-64.6-29.2-64.6-82.9S454.2,704,493,704z
		"/>
	<path class="st0" d="M760.6,916c66.3,0,117.3-47.2,117.3-129.1c0-81.9-51-129.1-117.3-129.1c-67,0-117.6,47.2-117.6,129.1
		C643,868.5,693.6,916,760.6,916z M760.6,704c38.9,0,64.2,29.2,64.2,82.9s-25.3,82.9-64.2,82.9s-64.6-29.2-64.6-82.9
		S721.7,704,760.6,704z"/>
	<polygon class="st0" points="1031.3,773.8 1125,661.3 1062.2,661.3 970.9,772.7 967.4,772.7 967.4,661.3 915.4,661.3 915.4,912.6 
		967.4,912.6 967.4,840.7 993.8,808.8 1063.6,912.6 1126,912.6 	"/>
	<polygon class="st0" points="868,1087.5 381,1087.5 381,970 331,970 331,982 331,982 331,1131.5 331,1131.5 331,1143.5 924,1143.5 
		924,970 868,970 	"/>
	<polygon class="st0" points="381,192.5 868,192.5 868,281.2 924,281.2 924,136.5 331,136.5 331,148.5 331,148.5 331,269.2 
		331,269.2 331,281.2 381,281.2 	"/>
</g>
</svg>
