<?xml version="1.0" encoding="utf-8"?>
<!-- Generator: Adobe Illustrator 24.0.0, SVG Export Plug-In . SVG Version: 6.00 Build 0)  -->
<svg version="1.1" id="Layer_1" xmlns="http://www.w3.org/2000/svg" xmlns:xlink="http://www.w3.org/1999/xlink" x="0px" y="0px"
	 viewBox="0 0 1280 1280" style="enable-background:new 0 0 1280 1280;" xml:space="preserve">
<style type="text/css">
	.st0{fill:#AAAAAA;}
</style>
<g>
	<g>
		<path class="st0" d="M1181.9,689.3H98.1c-27.2,0-49.3-22.1-49.3-49.3s22.1-49.3,49.3-49.3h1083.9c27.2,0,49.3,22.1,49.3,49.3
			S1209.1,689.3,1181.9,689.3z"/>
	</g>
	<g>
		<path class="st0" d="M1181.9,236H98.1c-27.2,0-49.3-22.1-49.3-49.3s22.1-49.3,49.3-49.3h1083.9c27.2,0,49.3,22.1,49.3,49.3
			S1209.1,236,1181.9,236z"/>
	</g>
	<g>
		<path class="st0" d="M1162.2,1142.5H98.1c-27.2,0-49.3-22.1-49.3-49.3c0-27.2,22.1-49.3,49.3-49.3h1064.2
			c27.2,0,49.3,22.1,49.3,49.3C1211.5,1120.5,1189.4,1142.5,1162.2,1142.5z"/>
	</g>
</g>
</svg>
