<?xml version="1.0" encoding="utf-8"?>
<!-- Generator: Adobe Illustrator 24.0.0, SVG Export Plug-In . SVG Version: 6.00 Build 0)  -->
<svg version="1.1" id="Layer_1" xmlns="http://www.w3.org/2000/svg" xmlns:xlink="http://www.w3.org/1999/xlink" x="0px" y="0px"
	 viewBox="0 0 1280 1280" style="enable-background:new 0 0 1280 1280;" xml:space="preserve">
<style type="text/css">
	.st0{fill:#FFFFFF;}
</style>
<g>
	<polygon class="st0" points="518.7,506.2 516,506.2 446.7,337 382.6,337 382.6,586.6 432.9,586.6 432.9,422.5 435,422.5 
		500.1,585.5 534.6,585.5 599.8,423.2 601.8,423.2 601.8,586.6 652.2,586.6 652.2,337 588,337 	"/>
	<polygon class="st0" points="821.8,586.6 821.8,497.6 912.8,337 854.5,337 797.3,444.5 794.9,444.5 737.3,337 679.1,337 
		770.1,497.6 770.1,586.6 	"/>
	<path class="st0" d="M309.4,660.6h-97.9v249.6h51.7v-81.4H308c57.6,0,90.7-34.1,90.7-84.1C398.7,695.4,366.3,660.6,309.4,660.6z
		 M299.8,787.1h-36.5V703h36.5c30.7,0,45.5,16.9,45.5,41.7C345.3,769.8,330.4,787.1,299.8,787.1z"/>
	<path class="st0" d="M463.3,852.6h90.3l18.6,57.6h55.5l-86.2-249.6h-66.5l-86.5,249.6h55.8L463.3,852.6z M507.5,716.8h1.7
		l31.4,95.5h-64.1L507.5,716.8z"/>
	<path class="st0" d="M639.5,785.7c0,78.9,47.6,127.9,117.6,127.9c63.1,0,107.9-40,107.9-105.5v-31H760.8v39H815
		c-0.7,31.5-21.9,51.7-57.6,51.7c-39.6,0-65.2-30-65.2-82.7c0-52.4,26.2-82,64.8-82c27.2,0,46.2,14.5,53.1,37.9h52.4
		c-6.9-49.3-50.3-83.8-106.5-83.8C690.2,657.1,639.5,704.7,639.5,785.7z"/>
	<polygon class="st0" points="954.6,806.7 1061.8,806.7 1061.8,764 954.6,764 954.6,703.3 1070.4,703.3 1070.4,660.6 902.9,660.6 
		902.9,910.2 1070.8,910.2 1070.8,867.4 954.6,867.4 	"/>
	<path class="st0" d="M782.1,974.2L782.1,974.2c-29.6,24.8-64.9,49.7-95.9,71.7c-18,12.7-33.7,23.9-46.1,33.3
		c-12.4-9.5-28.1-20.6-46.1-33.3c-31.1-22-66.3-46.9-96-71.7l-1.7-1.4c-2.1-1.8-4.2-3.5-6.3-5.3l-1.1-0.9h-86.6l7.5,6.9
		c46.1,42.6,96.6,78.3,155.1,119.5c18.9,13.3,38.4,27.1,58.6,41.7c0.2,0.1,0.4,0.3,0.6,0.4c0.2,0.2,0.4,0.3,0.6,0.4l15.3,11.1
		l15.3-11.1c0.2-0.2,0.5-0.3,0.7-0.5l0.4-0.3c20.2-14.6,39.7-28.4,58.6-41.7c58.5-41.3,109.1-76.9,155.2-119.6l7.5-6.9h-86.6
		L782.1,974.2z"/>
	<path class="st0" d="M1151.1,435.4l-0.1-1.9l0-0.2c-0.1-1.8-0.4-3.6-0.6-5.3c-0.2-1.3-0.3-2.5-0.5-3.8
		c-8.2-83.4-38.3-155.3-87.2-207.7c-42.7-45.8-96.9-74.2-152.7-79.8l-4.6-0.5c-14.6-1.5-29.6-3-42.9-3
		c-110.8,0-169.6,40.1-222.5,100.7c-2.3-2.7-4.7-5.4-7.1-8c-58.6-65.2-121-91.8-215.4-91.8c-14.4,0-30.8,0.9-47.5,2.6
		c-55.8,5.6-110,34-152.7,79.8c-48.9,52.5-79,124.3-87.2,207.7c-0.1,1.3-0.3,2.5-0.5,3.8c-0.2,1.7-0.4,3.4-0.6,5.3l-1.3,30.7
		l1.2,30.5l0,0.1c0.3,3.6,0.8,7.9,1.5,12.9c3.8,35.1,11.9,56.6,24.3,89.1c1.2,3.1,2.4,6.4,3.7,9.7l1,2.6h57.6l-2.3-5.5
		c-1.4-3.4-3.1-7.3-4.6-11.2l-2-5.1c-14.4-36.7-23-58.9-25.9-95.7v-54.9c0.2-2.4,0.5-4.6,0.8-7c0.2-1.5,0.4-3,0.6-4.6
		c7.6-68.3,32.2-127,71.3-169.6c33.9-37,76.7-59.9,120.3-64.3c14.7-1.5,29.8-2.3,42.3-2.3c89.5,0,136.7,24.4,202,104.6l20.5,25.1
		l20.5-25.1c65.9-80.9,113.1-105.5,202-105.5c11.1,0,24,1.3,36.4,2.6c1.9,0.2,3.9,0.4,5.8,0.6c43.7,4.4,86.4,27.2,120.4,64.3
		c39.1,42.6,63.7,101.3,71.2,169.6c0.2,1.5,0.4,3.1,0.6,4.6c0.3,2.4,0.6,4.6,0.8,7v54.9c-2.9,36.8-11.6,59-26,95.8l-1.9,5
		c-1.4,3.7-3,7.5-4.6,11.2l-2.3,5.5h57.6l1-2.6c1.3-3.4,2.5-6.7,3.7-9.8c12.3-32.5,20.5-53.9,24.3-89c0.7-5,1.2-9.2,1.5-12.9l1-30.5
		l0-0.1L1151.1,435.4z"/>
</g>
</svg>
