<?xml version="1.0" encoding="utf-8"?>
<!-- Generator: Adobe Illustrator 24.0.0, SVG Export Plug-In . SVG Version: 6.00 Build 0)  -->
<svg version="1.1" id="Layer_1" xmlns="http://www.w3.org/2000/svg" xmlns:xlink="http://www.w3.org/1999/xlink" x="0px" y="0px"
	 viewBox="0 0 680 240" style="enable-background:new 0 0 680 240;" xml:space="preserve">
<style type="text/css">
	.st0{fill:#FFFFFF;}
</style>
<rect width="680" height="240"/>
<g>
	<path class="st0" d="M146.1,79.9h-40.8v34c23.5,0.1,36.6-0.8,51.5-3.9l1.7,12.5c-16.3,3.2-31,4-58.3,4H90v-59h56.1V79.9z
		 M188.4,179.9h-85.1v-41.7h15.4v29.2h69.8V179.9z M183.4,92.4H201v12.7h-17.6v42.6h-15.4V57.2h15.4V92.4z"/>
	<path class="st0" d="M328.4,130.7h-114v-12.3h49.3V106h-35.3V62.4h86.4v12.2h-71v19h72.1V106h-36.8v12.5h49.4V130.7z M314.7,182.8
		h-15.2v-29.9h-72.5v-12.3h87.7V182.8z"/>
	<path class="st0" d="M457.9,134.7H343.6v-12h114.3V134.7z M443.5,182.4H428v-25.7h-71.6v-12.3h87.1V182.4z M445.2,113.4h-86.9V60.3
		h85.9v12h-70.6v8.6h67.5v11.5h-67.5v9.3h71.6V113.4z"/>
	<path class="st0" d="M481.5,159.8l-8.7-11.9c30.4-15.2,46.9-36.5,50.1-64.9h-43.3V70.2h58.8C538.4,107.1,523.1,139.3,481.5,159.8z
		 M571.5,106.1H590V119h-18.5v63.1h-15.4V57.2h15.4V106.1z"/>
</g>
</svg>
