<?xml version="1.0" encoding="utf-8"?>
<!-- Generator: Adobe Illustrator 24.0.0, SVG Export Plug-In . SVG Version: 6.00 Build 0)  -->
<svg version="1.1" id="Layer_1" xmlns="http://www.w3.org/2000/svg" xmlns:xlink="http://www.w3.org/1999/xlink" x="0px" y="0px"
	 viewBox="0 0 1280 1280" style="enable-background:new 0 0 1280 1280;" xml:space="preserve">
<style type="text/css">
	.st0{fill:#FFFFFF;}
</style>
<path class="st0" d="M1155.9,1083.6l-365.5-324c27.5-33.9,48.8-71.8,63.3-113c17-48.1,24.1-98.6,21-149.9
	c-3.1-51.4-16.2-100.6-38.8-146.3c-21.9-44.2-51.8-83.2-88.8-116c-37-32.8-79.4-57.8-125.9-74.3c-48.1-17-98.6-24.1-149.9-21
	c-51.4,3.1-100.6,16.2-146.3,38.8c-44.2,21.9-83.2,51.8-116,88.8c-32.8,37-57.8,79.4-74.3,125.9c-17,48.1-24.1,98.6-21,149.9
	c3.1,51.4,16.2,100.6,38.8,146.3c21.9,44.2,51.8,83.2,88.8,116c37,32.8,79.4,57.8,125.9,74.3c40.7,14.4,83.3,21.7,126.5,21.7
	c7.8,0,15.6-0.2,23.4-0.7c51.4-3.1,100.6-16.2,146.3-38.8c29.1-14.4,56.2-32.5,80.7-53.8l367.7,325.9c6.1,5.4,13.9,8.4,22.1,8.4
	c9.5,0,18.6-4.1,24.9-11.2C1170.9,1116.8,1169.6,1095.7,1155.9,1083.6z M513.1,833.6L513.1,833.6c-83.9,5.1-164.7-22.9-227.6-78.6
	c-62.9-55.8-100.3-132.7-105.4-216.6c-5-83.9,22.9-164.7,78.6-227.6c55.8-62.9,132.7-100.3,216.6-105.4c6.4-0.4,12.8-0.6,19.1-0.6
	c166,0,303.9,129.9,313.9,295.8c5,83.8-22.9,164.6-78.7,227.5C673.7,791.1,596.8,828.6,513.1,833.6z"/>
</svg>
