<?xml version="1.0" encoding="utf-8"?>
<!-- Generator: Adobe Illustrator 24.0.0, SVG Export Plug-In . SVG Version: 6.00 Build 0)  -->
<svg version="1.1" id="Layer_1" xmlns="http://www.w3.org/2000/svg" xmlns:xlink="http://www.w3.org/1999/xlink" x="0px" y="0px"
	 viewBox="0 0 1280 1280" style="enable-background:new 0 0 1280 1280;" xml:space="preserve">
<style type="text/css">
	.st0{fill:#FFFFFF;}
</style>
<g>
	<g>
		<path class="st0" d="M273,664.4c-26.1,0-40.6,12-40.9,28.5c-0.3,17.9,18.6,26.1,39.9,30.9l22.3,5.5c42.6,9.6,74.6,31.3,74.6,72.9
			c0,45.7-35.7,74.6-96.2,74.6c-60.1,0-98.6-27.8-100-81.1h50.2c1.7,25.1,21.7,37.8,49.1,37.8c27.1,0,44.7-12.7,44.7-31.3
			c0-16.8-15.5-24.7-42.6-31.6l-27.1-6.5c-41.9-10.3-67.7-31.3-67.7-67.7c0-45.4,39.9-75.3,94.2-75.3c55,0,91.4,30.6,92.1,74.6
			h-49.5C313.9,676.1,298.1,664.4,273,664.4z"/>
		<path class="st0" d="M402.5,624.6h51.5v103.1H562V624.6h51.9v248.8H562V770.3H454.1v103.1h-51.5V624.6z"/>
		<path class="st0" d="M767.5,876.8C701.2,876.8,651,829.7,651,749c0-81.1,50.2-127.8,116.5-127.8c65.6,0,116.2,46.7,116.2,127.8
			S833.1,876.8,767.5,876.8z M767.5,666.9c-38.5,0-63.9,28.9-63.9,82.1c0,53.3,25.4,82.1,63.9,82.1c38.5,0,63.6-28.9,63.6-82.1
			C831.1,695.7,806,666.9,767.5,666.9z"/>
		<path class="st0" d="M920.8,624.6h97.6c56.7,0,89,34.7,89,83.9c0,49.8-33,83.9-90.4,83.9h-44.7v81.1h-51.5V624.6z M1008.7,750.7
			c30.6,0,45.4-17.2,45.4-42.3c0-24.7-14.8-41.6-45.4-41.6h-36.4v83.9H1008.7z"/>
	</g>
	<polygon class="st0" points="977.2,929.2 977.2,1082.9 302.8,1082.9 302.8,929.2 244.1,929.2 244.1,1141.5 1035.9,1141.5 
		1035.9,929.2 	"/>
	<path class="st0" d="M852.6,464.1V334.6c0-108.1-95.4-196.1-212.6-196.1s-212.6,88-212.6,196.1v129.5H244.1v102.6h58.6v-44h674.5
		v44h58.6V464.1H852.6z M794,464.1H486V334.6c0-75.8,69.1-137.4,154-137.4s154,61.6,154,137.4V464.1z"/>
</g>
</svg>
