<?xml version="1.0" encoding="utf-8"?>
<!-- Generator: Adobe Illustrator 24.0.0, SVG Export Plug-In . SVG Version: 6.00 Build 0)  -->
<svg version="1.1" id="Layer_1" xmlns="http://www.w3.org/2000/svg" xmlns:xlink="http://www.w3.org/1999/xlink" x="0px" y="0px"
	 viewBox="0 0 680 240" style="enable-background:new 0 0 680 240;" xml:space="preserve">
<style type="text/css">
	.st0{fill:#FFFFFF;}
</style>
<rect width="680" height="240"/>
<g>
	<path class="st0" d="M146.3,78.6h-41v31.5c24-0.1,37.5-0.8,52.3-3.9l1.5,12.4c-16.3,3.5-31.1,4-58.9,4H90V66.1h56.3V78.6z
		 M185.5,157.7c-0.1,15.8-16.4,25-42.1,25c-26,0-42.5-9.2-42.5-25c0-15.6,16.5-24.7,42.5-24.7C169.1,132.9,185.3,142.1,185.5,157.7z
		 M116.1,157.7c-0.1,8.2,10,12.6,27.2,12.6c17,0,27.1-4.4,27.1-12.6c0-8.1-10.1-12.4-27.1-12.4C126.1,145.3,116,149.6,116.1,157.7z
		 M184.4,88h17.4v12.6h-17.4v29.9h-15.6V57.2h15.6V88z"/>
	<path class="st0" d="M284.2,89.6c-0.1,16.7-14.3,28.4-33.4,28.4c-19.2,0-33.4-11.7-33.4-28.4c0-16.5,14.2-28.4,33.4-28.4
		C269.9,61.2,284,73,284.2,89.6z M232.5,89.6c0,9.7,7.8,15.8,18.3,15.8s18.3-6.1,18.3-15.8c0-9.6-7.8-15.6-18.3-15.6
		S232.5,80,232.5,89.6z M319.9,158.9h-68v10.1h71.7v12.2h-86.9v-33.8h67.7v-9.3h-68v-12.1h83.4V158.9z M319.9,120.7h-15.6V57.2h15.6
		V120.7z"/>
	<path class="st0" d="M363.9,97.8h20.4v-29h14.3v83.7h-49.3V68.7h14.6V97.8z M384.3,139.9V110h-20.4v29.9H384.3z M453.8,182.8h-14.9
		v-64.3h-13.3v58.2H411V59.4h14.6v46.3h13.3V57.2h14.9V182.8z"/>
	<path class="st0" d="M540.2,117.9H590v12.4H475.5v-12.4H525v-16.4h15.3V117.9z M583.5,96.5l-6,12.1c-20.6-3.2-37-12.5-45-25.7
		c-8.1,13.2-24.5,22.5-45.2,25.7l-5.6-12.1c25.9-3.3,42.9-17.5,42.9-32.5v-4.7h15.7V64C540.4,79.3,557.2,93.2,583.5,96.5z
		 M576.1,160.6c-0.1,14.2-16.3,22.1-43.5,22.1c-27.4,0-43.8-7.9-43.8-22.1c0-14.2,16.4-22.1,43.8-22.1
		C559.8,138.5,576,146.4,576.1,160.6z M504.5,160.6c-0.1,6.9,9.6,10.4,28.1,10.4c18.1,0,27.9-3.5,28.1-10.4
		c-0.1-6.9-10-10.3-28.1-10.3C514.1,150.3,504.4,153.6,504.5,160.6z"/>
</g>
</svg>
