<?xml version="1.0" encoding="utf-8"?>
<!-- Generator: Adobe Illustrator 24.0.0, SVG Export Plug-In . SVG Version: 6.00 Build 0)  -->
<svg version="1.1" id="Layer_1" xmlns="http://www.w3.org/2000/svg" xmlns:xlink="http://www.w3.org/1999/xlink" x="0px" y="0px"
	 viewBox="0 0 1133.9 127.6" style="enable-background:new 0 0 1133.9 127.6;" xml:space="preserve">
<g>
	<path d="M46.1,32.9c0-3.4-0.2-6.4-0.5-9.2c-0.3-2.8-1-4.8-1.9-6c-1-1.5-2.4-2.7-4.2-3.6c-1.8-1-4.3-1.4-7.4-1.4h-1
		c-1.8,0-2.7-0.9-2.7-2.7c0-1.9,0.9-2.9,2.7-2.9h39.9c9.5,0,17.2,0.9,23.2,2.8c6,1.9,10.7,4.3,14.1,7.3c3.4,3,5.7,6.3,6.9,10.1
		c1.2,3.7,1.9,7.4,1.9,11.2c0,3.7-0.6,7.4-1.9,11.2c-1.2,3.7-3.5,7.1-6.9,10.1c-3.4,3-8.1,5.4-14.1,7.3c-6,1.9-13.8,2.8-23.2,2.8
		h-12v25c0,3.5,0.2,6.6,0.6,9.4c0.4,2.8,1,4.8,1.9,6c0.9,1.4,2.3,2.5,4.1,3.5c1.8,1,4.3,1.4,7.4,1.4h1.9c0.7,0,1.3,0.2,1.9,0.7
		c0.6,0.5,0.8,1.1,0.8,2c0,0.9-0.3,1.6-0.8,2.1c-0.6,0.5-1.2,0.8-1.9,0.8H31.1c-1.8,0-2.7-1-2.7-2.9c0-1.8,0.9-2.7,2.7-2.7h1
		c3.2,0,5.6-0.5,7.4-1.4c1.8-1,3.2-2.1,4.2-3.5c0.9-1.2,1.5-3.2,1.9-6c0.3-2.8,0.5-5.9,0.5-9.4V32.9z M102.7,38.2
		c0-3.2-0.5-6.1-1.4-8.9c-0.9-2.8-2.6-5.2-5.2-7.4c-2.5-2.1-6-3.8-10.4-5.1C81.4,15.6,75.7,15,68.7,15h-9.8v46.6h9.8
		c7,0,12.7-0.6,17.1-1.9c4.4-1.3,7.9-3,10.4-5.2c2.5-2.2,4.3-4.7,5.2-7.5C102.3,44.1,102.7,41.2,102.7,38.2z"/>
	<path d="M148.5,32.9c0-3.4-0.2-6.4-0.5-9.2c-0.3-2.8-1-4.8-1.9-6c-1-1.5-2.4-2.7-4.2-3.6c-1.8-1-4.3-1.4-7.4-1.4h-1
		c-1.8,0-2.7-0.9-2.7-2.7c0-1.9,0.9-2.9,2.7-2.9h43.8c0.7,0,1.3,0.3,1.9,0.8c0.6,0.5,0.8,1.2,0.8,2.1c0,0.9-0.3,1.6-0.8,2
		c-0.6,0.5-1.2,0.7-1.9,0.7h-1.9c-3.2,0-5.6,0.5-7.4,1.4c-1.8,1-3.2,2.2-4.1,3.6c-0.9,1.2-1.6,3.2-1.9,6c-0.4,2.8-0.6,5.8-0.6,9.2
		v61.7c0,3.5,0.2,6.6,0.6,9.4c0.4,2.8,1,4.8,1.9,6c0.9,1.4,2.3,2.5,4.1,3.5c1.8,1,4.3,1.4,7.4,1.4h1.9c0.7,0,1.3,0.2,1.9,0.7
		c0.6,0.5,0.8,1.1,0.8,2c0,0.9-0.3,1.6-0.8,2.1c-0.6,0.5-1.2,0.8-1.9,0.8h-43.8c-1.8,0-2.7-1-2.7-2.9c0-1.8,0.9-2.7,2.7-2.7h1
		c3.2,0,5.6-0.5,7.4-1.4c1.8-1,3.2-2.1,4.2-3.5c0.9-1.2,1.5-3.2,1.9-6c0.3-2.8,0.5-5.9,0.5-9.4V32.9z"/>
	<path d="M281.2,97c0.7-1,1.5-1.6,2.5-1.8c1-0.2,1.9,0,2.5,0.4c0.7,0.5,1.1,1.2,1.4,2.2c0.2,1-0.1,2.1-0.8,3.4
		c-2.3,3.4-4.8,6.5-7.6,9.3c-2.8,2.8-6,5.2-9.5,7.3c-3.5,2-7.5,3.6-11.8,4.8c-4.3,1.2-9.2,1.8-14.4,1.8c-6.4,0-12.7-1.3-18.8-3.9
		c-6.1-2.6-11.6-6.4-16.4-11.3c-4.8-5-8.7-11.1-11.7-18.4c-3-7.3-4.5-15.7-4.5-25c0-9.6,1.3-18.2,4-25.9c2.6-7.7,6.3-14.3,11-19.7
		c4.7-5.4,10.2-9.6,16.6-12.5c6.4-2.9,13.3-4.4,20.9-4.4c4.8,0,8.9,0.7,12.3,2c3.3,1.4,6.1,2.6,8.4,3.9l8.8,4.4
		c1.9,0.8,3.2,0.2,3.7-1.7l1.9-6.6c0.3-1.4,1.2-2,2.5-1.9c1.4,0.1,2.1,0.8,2.2,2.2c0.6,6.5,1.1,12.9,1.6,19c0.5,6.1,1,12.4,1.4,18.8
		c0,0.9-0.3,1.6-0.8,2.1c-0.5,0.5-1.1,0.8-1.7,0.9c-0.6,0.1-1.2,0-1.8-0.4c-0.6-0.4-1-1-1.2-1.9c-1.5-4.8-3.4-9.2-5.8-13.2
		c-2.4-3.9-5.2-7.3-8.4-10.1c-3.2-2.8-6.6-5-10.4-6.6c-3.8-1.6-7.7-2.4-11.7-2.4c-5.3,0-10.3,1.1-15,3.4c-4.7,2.3-8.8,5.6-12.3,10.1
		c-3.5,4.5-6.3,10.1-8.3,16.9c-2,6.8-3,14.6-3,23.7c0,7.2,1.1,13.9,3.3,20c2.2,6.1,5.1,11.4,8.7,15.9s7.7,7.9,12.3,10.4
		c4.6,2.5,9.2,3.7,13.9,3.5c4.5-0.1,8.6-0.7,12.3-1.9c3.7-1.1,7-2.6,10-4.3c2.9-1.7,5.5-3.7,7.9-5.9
		C277.5,101.5,279.5,99.2,281.2,97z"/>
	<path d="M369.9,23.6c1.8-1.9,3-3.5,3.5-4.6c0.6-1.2,0.7-2.4,0.3-3.6c-0.3-1.1-1.2-1.9-2.6-2.2s-3.5-0.5-6.2-0.5h-1.2
		c-1.8,0-2.7-0.9-2.7-2.7c0-1.9,0.9-2.9,2.7-2.9H403c1.8,0,2.7,1,2.7,2.9c0,1.6-0.8,2.5-2.4,2.7c-2.6,0-5,0.3-7.3,0.8
		c-2.3,0.6-4.5,1.5-6.6,2.7c-2.1,1.2-4.3,2.8-6.4,4.7c-2.1,1.9-4.5,4.2-6.9,6.9l-22,24.2l37.9,51.9c2.8,3.8,5.7,6.6,8.5,8.4
		c2.9,1.7,6.3,2.6,10.2,2.6h1.7c0.7,0,1.3,0.2,1.8,0.7c0.5,0.5,0.8,1.1,0.8,2c0,0.9-0.3,1.6-0.8,2.1c-0.5,0.5-1.1,0.8-1.8,0.8h-45.6
		c-0.7,0-1.3-0.3-1.8-0.8c-0.5-0.5-0.8-1.2-0.8-2.1c0-0.9,0.3-1.6,0.8-2c0.5-0.4,1.1-0.7,1.8-0.7h1.5c2.9,0,5-0.1,6.3-0.4
		c1.2-0.3,2.3-0.9,3-1.9c0.6-0.9,0.8-1.9,0.7-3.1c-0.1-1.2-0.9-2.8-2.4-4.8L345,62.2l-13.7,15.2v17.2c0,3.5,0.2,6.6,0.7,9.4
		c0.4,2.8,1.1,4.8,2,6c0.9,1.4,2.1,2.5,3.6,3.5c1.5,1,3.5,1.4,6,1.4h1.7c0.8,0,1.5,0.2,2,0.7c0.6,0.5,0.8,1.1,0.8,2
		c0,0.9-0.3,1.6-0.8,2.1c-0.6,0.5-1.2,0.8-2,0.8h-41.9c-1.8,0-2.7-1-2.7-2.9c0-1.8,0.9-2.7,2.7-2.7h1c3.2,0,5.6-0.5,7.4-1.4
		c1.8-1,3.2-2.1,4.2-3.5c0.9-1.2,1.5-3.2,1.9-6c0.3-2.8,0.5-5.9,0.5-9.4V32.9c0-3.4-0.2-6.4-0.5-9.2c-0.3-2.8-1-4.8-1.9-6
		c-1-1.5-2.4-2.7-4.2-3.6c-1.8-1-4.3-1.4-7.4-1.4h-1c-1.8,0-2.7-0.9-2.7-2.7c0-1.9,0.9-2.9,2.7-2.9h41.9c0.8,0,1.5,0.3,2,0.8
		c0.6,0.5,0.8,1.2,0.8,2.1c0,0.9-0.3,1.6-0.8,2c-0.6,0.5-1.2,0.7-2,0.7h-1.7c-2.5,0-4.5,0.5-6,1.4c-1.5,1-2.7,2.2-3.6,3.6
		c-0.9,1.2-1.6,3.2-2,6c-0.5,2.8-0.7,5.8-0.7,9.2v33.5L369.9,23.6z"/>
	<path d="M561.9,7.1l0.8,24.5c0,1.1-0.2,2-0.7,2.5c-0.5,0.6-1,0.8-1.6,0.8c-0.6,0-1.2-0.3-1.8-0.8c-0.6-0.5-1-1.3-1.2-2.3
		c-0.7-2.7-1.6-5.2-2.8-7.5c-1.2-2.3-3.2-4.4-6.2-6.3c-2.1-1.4-4.6-2.3-7.3-2.7c-2.7-0.5-6.2-0.7-10.5-0.7h-8.1v79.9
		c0,3.5,0.2,6.6,0.6,9.4c0.4,2.8,1,4.8,1.9,6c0.9,1.4,2.3,2.5,4.1,3.5c1.8,1,4.3,1.4,7.6,1.4h1.7c0.7,0,1.3,0.2,1.9,0.7
		c0.6,0.5,0.9,1.1,0.9,2c0,0.9-0.3,1.6-0.9,2.1c-0.6,0.5-1.3,0.8-1.9,0.8h-43.8c-0.7,0-1.3-0.3-1.9-0.8c-0.6-0.5-0.8-1.2-0.8-2.1
		c0-0.9,0.3-1.6,0.8-2c0.6-0.4,1.2-0.7,1.9-0.7h1c3.3,0,5.8-0.5,7.5-1.4c1.7-1,3.1-2.1,4.1-3.5c0.9-1.2,1.5-3.2,1.9-6
		c0.3-2.8,0.5-5.9,0.5-9.4V14.7h-7.9c-4.3,0-7.8,0.2-10.6,0.7c-2.8,0.5-5.2,1.4-7.2,2.7c-2.9,1.9-5,4-6.2,6.3
		c-1.2,2.3-2.2,4.8-3,7.5c-0.2,1-0.6,1.8-1.2,2.3c-0.6,0.5-1.2,0.8-1.8,0.8c-0.6,0-1.2-0.3-1.6-0.8c-0.5-0.6-0.7-1.4-0.7-2.5
		l0.8-24.5H561.9z"/>
	<path d="M604.3,66.1v28.6c0,3.5,0.2,6.6,0.6,9.4c0.4,2.8,1,4.8,1.9,6c0.9,1.4,2.3,2.5,4.1,3.5c1.8,1,4.3,1.4,7.4,1.4h1.9
		c0.7,0,1.3,0.2,1.9,0.7c0.6,0.5,0.8,1.1,0.8,2c0,0.9-0.3,1.6-0.8,2.1c-0.6,0.5-1.2,0.8-1.9,0.8h-43.8c-1.8,0-2.7-1-2.7-2.9
		c0-1.8,0.9-2.7,2.7-2.7h1c3.2,0,5.6-0.5,7.4-1.4c1.8-1,3.2-2.1,4.2-3.5c0.9-1.2,1.5-3.2,1.9-6c0.3-2.8,0.5-5.9,0.5-9.4V32.9
		c0-3.4-0.2-6.4-0.5-9.2c-0.3-2.8-1-4.8-1.9-6c-1-1.5-2.4-2.7-4.2-3.6c-1.8-1-4.3-1.4-7.4-1.4h-1c-1.8,0-2.7-0.9-2.7-2.7
		c0-1.9,0.9-2.9,2.7-2.9h43.8c0.7,0,1.3,0.3,1.9,0.8c0.6,0.5,0.8,1.2,0.8,2.1c0,0.9-0.3,1.6-0.8,2c-0.6,0.5-1.2,0.7-1.9,0.7h-1.9
		c-3.2,0-5.6,0.5-7.4,1.4c-1.8,1-3.2,2.2-4.1,3.6c-0.9,1.2-1.6,3.2-1.9,6c-0.4,2.8-0.6,5.8-0.6,9.2v25h58v-25c0-3.4-0.2-6.4-0.5-9.2
		c-0.3-2.8-1-4.8-1.9-6c-1-1.5-2.4-2.7-4.1-3.6c-1.7-1-4.3-1.4-7.5-1.4h-1.7c-0.8,0-1.5-0.2-2-0.7c-0.6-0.4-0.8-1.1-0.8-2
		c0-0.9,0.3-1.6,0.8-2.1c0.6-0.5,1.2-0.8,2-0.8h43.8c0.7,0,1.3,0.3,1.8,0.8c0.5,0.5,0.8,1.2,0.8,2.1c0,0.9-0.3,1.6-0.8,2
		c-0.5,0.5-1.1,0.7-1.8,0.7h-1.2c-3.2,0-5.6,0.5-7.4,1.4c-1.8,1-3.2,2.2-4.1,3.6c-0.9,1.2-1.5,3.2-1.9,6c-0.4,2.8-0.6,5.8-0.6,9.2
		v61.7c0,3.5,0.2,6.6,0.6,9.4c0.4,2.8,1,4.8,1.9,6c0.9,1.4,2.3,2.5,4.1,3.5c1.8,1,4.3,1.4,7.4,1.4h1.2c0.7,0,1.3,0.2,1.8,0.7
		c0.5,0.5,0.8,1.1,0.8,2c0,0.9-0.3,1.6-0.8,2.1c-0.5,0.5-1.1,0.8-1.8,0.8h-43.8c-0.8,0-1.5-0.3-2-0.8c-0.6-0.5-0.8-1.2-0.8-2.1
		c0-0.9,0.3-1.6,0.8-2c0.6-0.4,1.2-0.7,2-0.7h1.7c3.3,0,5.8-0.5,7.5-1.4c1.7-1,3.1-2.1,4.1-3.5c0.9-1.2,1.5-3.2,1.9-6
		c0.3-2.8,0.5-5.9,0.5-9.4V66.1H604.3z"/>
	<path d="M721.2,33.1c0-7.5-0.8-12.6-2.4-15.2c-1.2-1.9-2.7-3.3-4.5-4.1c-1.7-0.8-4.1-1.2-7.2-1.2h-0.8c-0.7,0-1.3-0.2-1.9-0.7
		c-0.6-0.4-0.9-1.1-0.9-2c0-0.9,0.3-1.6,0.9-2.1c0.6-0.5,1.3-0.8,1.9-0.8H789l0.8,23.5c0,0.9-0.2,1.6-0.7,2.2c-0.5,0.6-1,0.9-1.6,1
		c-0.6,0.1-1.2,0-1.8-0.4c-0.6-0.4-1-1.1-1.2-2.1c-0.7-2.5-1.7-4.9-3.1-7.4c-1.4-2.4-3.6-4.4-6.5-6c-1.9-1.2-4.2-2.1-6.9-2.7
		c-2.7-0.6-6-0.8-10-0.8h-24v43.4h20.6c6.4,0,10.9-1.1,13.5-3.2c2.6-2.1,3.9-6.1,3.9-11.8c0-0.8,0.2-1.5,0.7-2
		c0.4-0.6,1.1-0.8,2-0.8c0.9,0,1.5,0.3,1.9,0.8c0.4,0.6,0.6,1.2,0.6,2v38.2c0,0.7-0.2,1.3-0.6,1.9c-0.4,0.6-1,0.9-1.9,0.9
		c-0.9,0-1.6-0.3-2-0.9c-0.5-0.6-0.7-1.3-0.7-1.9c0-5.7-1.3-9.7-3.9-11.8c-2.6-2.1-7.1-3.2-13.5-3.2h-20.6v31.3c0,4,0.1,6.9,0.3,8.6
		c0.2,1.7,0.6,3.1,1.4,4.2c0.7,1,1.5,1.7,2.5,2.2c1,0.4,2.4,0.7,4.5,0.7h16.2c4.8,0,8.8-0.2,11.9-0.7c3.1-0.4,5.9-1.6,8.5-3.4
		c2.6-1.7,5.1-4,7.6-7.1c2.5-3.1,4.5-6.3,6.1-9.6c0.3-0.8,0.8-1.3,1.5-1.6c0.7-0.3,1.3-0.3,1.9-0.1c0.6,0.2,1.1,0.7,1.4,1.3
		c0.3,0.6,0.3,1.4,0,2.3l-9.5,26.5h-82.1c-0.7,0-1.3-0.3-1.9-0.8c-0.6-0.5-0.9-1.2-0.9-2.1c0-0.9,0.3-1.6,0.9-2
		c0.6-0.4,1.3-0.7,1.9-0.7h0.8c3.3,0,5.7-0.4,7.4-1.3c1.6-0.8,3-2.1,4.1-3.6c1.7-2.7,2.5-7.8,2.5-15.4V33.1z"/>
	<path d="M875.3,33.1c0-7.5-0.8-12.6-2.4-15.2c-1.2-1.9-2.7-3.3-4.5-4.1c-1.7-0.8-4.1-1.2-7.2-1.2h-0.8c-0.7,0-1.3-0.2-1.9-0.7
		c-0.6-0.4-0.9-1.1-0.9-2c0-0.9,0.3-1.6,0.9-2.1c0.6-0.5,1.3-0.8,1.9-0.8h80.8l0.8,23.8c0,0.9-0.2,1.6-0.7,2.1
		c-0.5,0.5-1,0.8-1.6,0.9c-0.6,0.1-1.2-0.1-1.9-0.5c-0.6-0.4-1-1.2-1.3-2.2c-0.6-2.7-1.6-5.2-3-7.4c-1.5-2.3-3.6-4.2-6.3-5.7
		c-2-1.2-4.4-2.2-7.1-2.8c-2.7-0.6-6-0.9-10-0.9h-22.1v45.1h16.1c6.4,0,11-1,13.6-3.1c2.6-2.1,4-6,4-11.7c0-0.8,0.2-1.5,0.6-2.1
		c0.4-0.6,1-0.9,1.9-0.9c0.9,0,1.5,0.3,1.9,0.9c0.4,0.6,0.6,1.3,0.6,2.1v38c0,0.8-0.2,1.5-0.7,2.1c-0.5,0.6-1.1,0.9-2,0.9
		c-0.9,0-1.5-0.3-1.9-0.9c-0.3-0.6-0.5-1.3-0.5-2.1c0-5.7-1.3-9.7-4-11.7c-2.6-2.1-7.2-3.1-13.6-3.1h-16.1v26.9
		c0,3.5,0.1,6.6,0.4,9.4c0.3,2.8,0.9,4.8,1.8,6c0.9,1.4,2.3,2.5,4.3,3.5c2,1,4.5,1.4,7.5,1.4h4.6c0.8,0,1.5,0.2,2,0.7
		c0.6,0.5,0.8,1.1,0.8,2c0,0.9-0.3,1.6-0.8,2.1c-0.6,0.5-1.2,0.8-2,0.8h-46.3c-0.7,0-1.3-0.3-1.9-0.8c-0.6-0.5-0.9-1.2-0.9-2.1
		c0-0.9,0.3-1.6,0.9-2c0.6-0.4,1.3-0.7,1.9-0.7h0.8c2.9,0,5.4-0.4,7.4-1.4c2-0.9,3.5-2.1,4.6-3.6c0.9-1.2,1.5-3.2,1.7-5.9
		c0.2-2.7,0.3-5.9,0.3-9.5V33.1z"/>
	<path d="M970.1,32.9c0-3.4-0.2-6.4-0.5-9.2c-0.3-2.8-1-4.8-1.9-6c-1-1.5-2.4-2.7-4.2-3.6c-1.8-1-4.3-1.4-7.4-1.4h-1
		c-1.8,0-2.7-0.9-2.7-2.7c0-1.9,0.9-2.9,2.7-2.9h43.8c0.7,0,1.3,0.3,1.9,0.8c0.6,0.5,0.8,1.2,0.8,2.1c0,0.9-0.3,1.6-0.8,2
		c-0.6,0.5-1.2,0.7-1.9,0.7H997c-3.2,0-5.6,0.5-7.4,1.4c-1.8,1-3.2,2.2-4.1,3.6c-0.9,1.2-1.6,3.2-1.9,6c-0.4,2.8-0.6,5.8-0.6,9.2
		v61.7c0,3.5,0.2,6.6,0.6,9.4c0.4,2.8,1,4.8,1.9,6c0.9,1.4,2.3,2.5,4.1,3.5c1.8,1,4.3,1.4,7.4,1.4h1.9c0.7,0,1.3,0.2,1.9,0.7
		c0.6,0.5,0.8,1.1,0.8,2c0,0.9-0.3,1.6-0.8,2.1c-0.6,0.5-1.2,0.8-1.9,0.8h-43.8c-1.8,0-2.7-1-2.7-2.9c0-1.8,0.9-2.7,2.7-2.7h1
		c3.2,0,5.6-0.5,7.4-1.4c1.8-1,3.2-2.1,4.2-3.5c0.9-1.2,1.5-3.2,1.9-6c0.3-2.8,0.5-5.9,0.5-9.4V32.9z"/>
	<path d="M1104.7,7.1l0.8,24.5c0,1.1-0.2,2-0.7,2.5c-0.5,0.6-1,0.8-1.6,0.8c-0.6,0-1.2-0.3-1.8-0.8c-0.6-0.5-1-1.3-1.2-2.3
		c-0.7-2.7-1.6-5.2-2.8-7.5c-1.2-2.3-3.2-4.4-6.2-6.3c-2.1-1.4-4.6-2.3-7.3-2.7c-2.7-0.5-6.2-0.7-10.5-0.7h-8.1v79.9
		c0,3.5,0.2,6.6,0.6,9.4c0.4,2.8,1,4.8,1.9,6c0.9,1.4,2.3,2.5,4.1,3.5c1.8,1,4.3,1.4,7.6,1.4h1.7c0.7,0,1.3,0.2,1.9,0.7
		c0.6,0.5,0.9,1.1,0.9,2c0,0.9-0.3,1.6-0.9,2.1c-0.6,0.5-1.3,0.8-1.9,0.8h-43.8c-0.7,0-1.3-0.3-1.9-0.8c-0.6-0.5-0.8-1.2-0.8-2.1
		c0-0.9,0.3-1.6,0.8-2c0.6-0.4,1.2-0.7,1.9-0.7h1c3.3,0,5.8-0.5,7.5-1.4c1.7-1,3.1-2.1,4.1-3.5c0.9-1.2,1.5-3.2,1.9-6
		c0.3-2.8,0.5-5.9,0.5-9.4V14.7h-7.9c-4.3,0-7.8,0.2-10.6,0.7c-2.8,0.5-5.2,1.4-7.2,2.7c-2.9,1.9-5,4-6.2,6.3s-2.2,4.8-3,7.5
		c-0.2,1-0.6,1.8-1.2,2.3c-0.6,0.5-1.2,0.8-1.8,0.8c-0.6,0-1.2-0.3-1.6-0.8c-0.5-0.6-0.7-1.4-0.7-2.5l0.8-24.5H1104.7z"/>
</g>
</svg>
