<?xml version="1.0" encoding="utf-8"?>
<!-- Generator: Adobe Illustrator 24.0.0, SVG Export Plug-In . SVG Version: 6.00 Build 0)  -->
<svg version="1.1" id="Layer_1" xmlns="http://www.w3.org/2000/svg" xmlns:xlink="http://www.w3.org/1999/xlink" x="0px" y="0px"
	 viewBox="0 0 1176.4 1360.6" style="enable-background:new 0 0 1176.4 1360.6;" xml:space="preserve">
<g>
	<g>
		<path d="M16,15h29.3c15.6,0,23.8,6.7,23.8,17.2c0,7.6-5.4,13.3-13.1,14.9v0.7c8.6,0.3,15.8,6.6,15.8,16.3c0,11.1-9.1,19.3-24,19.3
			H16V15z M50.6,36c0-4.3-3.4-6.8-8.3-6.8h-8.3v13.6h8C47,42.8,50.6,40.3,50.6,36z M52.7,61.8c0-5-3.6-7.8-9.3-7.8h-9.4v14.9h9.2
			C49.5,68.9,52.7,66.5,52.7,61.8z"/>
		<path d="M78.6,15h29.1C123,15,133,23.7,133,38.2c0,9.4-4.3,16.1-11.7,19.6l14,25.6h-19.5l-12.1-22.8h-7.1v22.8H78.6V15z
			 M103.5,46.6c6.8,0,10.7-2.5,10.7-8.4c0-6-3.9-8.8-10.7-8.8h-7v17.2H103.5z"/>
		<path d="M138.5,83.4L161.3,15h24.5l22.7,68.4h-19.4L185,70h-22.9L158,83.4H138.5z M180.8,56.4l-7.1-22.9h-0.6l-7,22.9H180.8z"/>
		<path d="M274,83.4h-15l-25.4-36.9h-0.5v36.9h-17.9V15h15.3l25,36.7h0.6V15H274V83.4z"/>
		<path d="M283.3,83.4V15H309c21.1,0,34.2,12.8,34.2,34.2c0,21.3-13.1,34.2-34,34.2H283.3z M308.6,68.1c10.6,0,16.5-4.4,16.5-18.9
			s-5.9-18.9-17-18.9h-6.9v37.8H308.6z"/>
		<path d="M400.3,28.9c-5.9,0-8.6,2.3-8.7,5.5c-0.1,3.5,3.1,5.5,9.4,6.8l5.7,1.3c14.7,3.1,21.2,10.3,21.3,20.8
			c-0.1,13.4-10.4,21-27.7,21c-17.7,0-29.1-7.7-29.3-24.5h17.2c0.3,6.3,4.7,9.7,11.8,9.7c6.1,0,9.4-2.5,9.5-6.1
			c-0.1-3.3-2.8-5.2-10.5-6.9l-6.9-1.5c-12-2.6-19.4-8.6-19.4-19.2c-0.1-12.9,11.3-21.6,27.4-21.6c16.4,0,26.7,8.8,26.8,22.1h-17.3
			C409.5,31.5,406.5,28.9,400.3,28.9z"/>
		<path d="M433.5,15h58.9v14.5h-20.6v53.8h-17.7V29.6h-20.6V15z"/>
		<path d="M529.2,84.3c-18.7,0-33.1-12.5-33.1-35.1c0-22.8,14.4-35.1,33.1-35.1c18.5,0,33,12.4,33,35.1
			C562.2,71.9,547.7,84.3,529.2,84.3z M529.2,29.7c-9.4,0-14.6,6.9-14.6,19.4c0,12.6,5.2,19.4,14.6,19.4c9.3,0,14.5-6.9,14.5-19.4
			C543.7,36.6,538.5,29.7,529.2,29.7z"/>
		<path d="M571,15h29.1c15.3,0,25.3,8.7,25.3,23.1c0,9.4-4.3,16.1-11.7,19.6l14,25.6h-19.5L596,60.6h-7.1v22.8H571V15z M595.9,46.6
			c6.8,0,10.7-2.5,10.7-8.4c0-6-3.9-8.8-10.7-8.8h-7v17.2H595.9z"/>
		<path d="M647.4,15L661,43h0.6L675.3,15h20.1l-25.1,46.4v21.9h-17.8V61.5L627.3,15H647.4z"/>
	</g>
	<g>
		<g>
			<path d="M22.9,201.3H16v-17.7h6.9V201.3z"/>
			<path d="M37.9,215.1c7.5-0.1,15.6-0.8,24.1-2.5l0.8,6.9c-9.8,2-19.4,2.5-28.1,2.5h-5.1v-38.8h8.2V215.1z M82.6,206.6h-8.4v29.7
				H66v-58.8h8.3v22.3h8.4V206.6z"/>
			<path d="M118.8,195.4c-0.1,7.1-5,12.5-12,14v8c4.7-0.2,9.3-0.6,13.7-1.2l0.6,6.1c-12.3,2.3-25.6,2.3-35.6,2.2l-1.1-6.7
				c4.2,0,9.1,0,14.2-0.1v-8.3c-7.2-1.5-12.2-6.8-12.2-14c0-8.5,6.9-14.4,16.2-14.4C111.7,181,118.7,187,118.8,195.4z M94.5,195.4
				c-0.1,4.7,3.4,7.4,8.1,7.4c4.5,0,8-2.8,8-7.4c0-4.7-3.5-7.4-8-7.4C98,188,94.5,190.7,94.5,195.4z M131.9,200.6h8v6.9h-8v28.9
				h-8.3v-58.9h8.3V200.6z"/>
			<path d="M185.3,190.8h-3.8v24.5c1.5-0.2,3-0.3,4.3-0.5l0.5,6c-9.1,1.9-21,2.1-28.4,2.1l-0.9-6.8l5-0.1v-25.2h-3.9v-6.7h27.2
				V190.8z M174.1,215.8v-25h-4.7V216L174.1,215.8z M208.7,236.4h-7.9v-29.5H196v26.7h-7.8v-55.1h7.8v21.8h4.9v-22.7h7.9V236.4z"/>
			<path d="M250.3,207.4l-4.6,6.4c-6.2-2.4-10.4-7.1-12.8-12.9c-2.6,6.2-7.2,11.1-13.9,13.6l-4.4-6.5c9.6-3.4,14-11.7,14-20.3v-6.8
				h8.4v6.8C237,195.8,241,203.9,250.3,207.4z M265.8,235.4h-40.5v-18.3h8.4v11.7h32.1V235.4z M264.6,221.3h-8.2v-18h-10.1v-6.7
				h10.1v-4.7h-10.1v-6.7h10.1v-7.6h8.2V221.3z"/>
			<path d="M326,207.8h-53.7v-6.5H326V207.8z M320.5,188.4c-0.1,6.5-7.9,10.1-21.4,10.1c-13.6,0-21.5-3.6-21.5-10.1
				c0-6.5,7.9-10,21.5-10C312.6,178.4,320.5,181.9,320.5,188.4z M319.4,226.3h-32.8v3.6H321v6.2h-42.5v-15.5h32.8v-3.2h-32.8v-6h41
				V226.3z M286.3,188.4c-0.1,2.9,4.1,4,12.8,4c8.7,0,12.9-1.1,12.9-4c0-2.6-4.1-4-12.9-4C290.4,184.4,286.2,185.8,286.3,188.4z"/>
			<path d="M374.4,189.4h-18.5v26.2c8.6-0.1,14.8-0.5,21.7-1.7l0.8,6.7c-8.1,1.6-15.2,1.9-26.1,1.8h-4.8v-39.6h26.9V189.4z
				 M394.6,236.5h-8.2v-31.9h-14.8v-6.7h14.8v-20.4h8.2V236.5z"/>
			<path d="M421.4,226.1l-4.7-6.3c14-7,21.4-16.4,23-29.5h-19.6v-6.7h28C448.1,201.1,441.2,216.4,421.4,226.1z M463.8,200.1h8.4v6.8
				h-8.4v29.4h-8.3v-58.8h8.3V200.1z"/>
			<path d="M479.3,208.5l-5.4-5.2c6.7-4.4,9.6-8.8,10.5-16h-8v-6.5h15.9C492.1,193.2,489.2,201.3,479.3,208.5z M491,217.6h22.1v-5.6
				h8.3v23.6h-38.7v-23.6h8.3V217.6z M496.5,210.5l-6-4.6c6.7-5.3,9.5-10.5,10.4-18.6h-6.7v-6.5h14.5
				C508.7,193.6,505.9,202.7,496.5,210.5z M513.1,229.2V224H491v5.2H513.1z M521.4,189.9h8v6.7h-8v13.1h-8.3v-32.2h8.3V189.9z"/>
			<path d="M570.5,233.8h-7.7v-27.1h-9.6c-3.4,6.7-8.8,12.6-17.2,17.4l-4.7-5.8c11.9-7.1,17.1-15.6,18.3-27.2h-15v-6.7h23.2
				c0,5.6-0.6,10.9-2,15.7h7.1v-21.4h7.7V233.8z M583,236.4h-7.8v-58.9h7.8V236.4z"/>
			<path d="M597.5,201.3h-6.9v-17.7h6.9V201.3z"/>
		</g>
		<g>
			<path d="M39.6,380.4h-3.2v20.4c1.3-0.1,2.5-0.3,3.6-0.4l0.4,5c-7.6,1.6-17.5,1.8-23.6,1.8l-0.8-5.7l4.2-0.1v-21h-3.2v-5.6h22.7
				V380.4z M30.2,401.2v-20.8h-3.9v20.9L30.2,401.2z M59.1,418.4h-6.6v-24.6h-4V416H42v-45.9h6.5v18.1h4v-18.9h6.6V418.4z"/>
			<path d="M93.8,394.2l-3.8,5.3c-5.2-2-8.7-5.9-10.7-10.7c-2.2,5.2-6,9.2-11.5,11.3l-3.7-5.4c8-2.9,11.7-9.8,11.7-16.9v-5.7h7v5.7
				C82.7,384.6,86,391.3,93.8,394.2z M106.7,417.5H73v-15.3h7v9.8h26.8V417.5z M105.7,405.8h-6.9v-15h-8.4v-5.6h8.4v-3.9h-8.4v-5.6
				h8.4v-6.4h6.9V405.8z"/>
			<path d="M169.6,400.3h-19v3.8h13.9v14.3h-7v-8.8h-27.8V404h14v-3.8h-19v-5.4h44.9V400.3z M164.2,383.5h-27v3.2h27.9v5.3h-34.8
				v-13.5h27v-3h-27.1v-5.3h34V383.5z"/>
			<path d="M217.3,398.1h-19v4.3h13.6v16H205v-10.5h-27.5v-5.5h14v-4.3h-18.9v-5.4h44.8V398.1z M185,375h19.7v-4.5h6.9v19h-33.3v-19
				h6.8V375z M204.7,384.1v-4H185v4H204.7z"/>
			<path d="M220.8,403.1c0-4.6,2.9-7.3,7.2-10.2c-2.1-2.6-3.8-5.5-3.8-9c0-5.7,4.2-10,10.6-10c6.3,0,10.1,4.2,10.1,9.2
				c0,3.7-1.9,6.6-5.2,9l-2.3,1.7l6.5,7.5c1-1.9,1.6-4.2,1.6-6.7h6.6c0,5.3-1.4,9.4-3.5,12.2l5.9,6.7h-8.4l-2.4-2.7
				c-2.9,2.3-6.6,3.3-10,3.3C225.7,414,220.8,409.2,220.8,403.1z M234.2,407.5c1.8,0,3.6-0.6,5.3-1.6l-7.5-8.4l-0.3,0.2
				c-2.2,1.6-3.2,3.3-3.2,4.9C228.6,405.4,230.8,407.5,234.2,407.5z M233.6,389.1l2-1.3c1.9-1.2,2.9-2.6,2.9-4.3
				c0-1.5-1.3-3.1-3.6-3.1c-2.3,0-3.8,1.7-3.8,3.7C231,385.6,232.1,387.3,233.6,389.1z"/>
			<path d="M274,407.1h8.9v-10h6.9v10H301v5.6h-44.9v-5.6h11.2v-10h6.8V407.1z M299.4,391l-2.8,5.7c-8.7-1.5-15.2-5.9-18.4-11.9
				c-3.3,6-9.7,10.5-18.3,11.9l-2.8-5.7c11.1-1.7,17.4-8.8,17.4-15.4V372h7.3v3.6C281.9,382.2,288.2,389.4,299.4,391z"/>
			<path d="M332.6,378.5h-4v11.9c2-0.1,4-0.4,5.9-0.6l0.5,5.1c-10,1.7-21.5,1.9-29.6,1.9l-0.8-5.6l5.3-0.1v-12.7h-4V373h26.7V378.5z
				 M345.2,409.1c-0.1,5.9-6.5,9.3-17,9.3c-10.5,0-16.9-3.4-16.9-9.3c0-5.9,6.4-9.2,16.9-9.2C338.8,399.9,345.2,403.2,345.2,409.1z
				 M321.9,390.8v-12.3h-5.4v12.6L321.9,390.8z M318.2,409.1c0,2.7,3.5,4.1,10,4.1s10-1.4,10.1-4.1c-0.1-2.6-3.5-3.9-10.1-3.9
				S318.2,406.4,318.2,409.1z M344.9,399H338v-29.6h6.9V399z"/>
			<path d="M394.8,402.2l-4.2,5.5c-5.4-2.7-9.1-7.6-11.1-13.6c-2.2,6.4-5.9,11.7-11.5,14.5l-4.3-5.6c8.4-3.8,12.2-13.3,12.3-22.5
				v-7.3h7v7.3C382.8,389.6,386.6,398.6,394.8,402.2z M405.7,418.5h-6.8v-28.2h-9.7v-5.6h9.7v-15.4h6.8V418.5z"/>
			<path d="M421.4,385.2h10.6v-12h6.8V407h-24.3v-33.8h6.9V385.2z M431.9,401.5v-11h-10.6v11H431.9z M453.1,418.5h-7v-49.2h7V418.5z
				"/>
			<path d="M504.7,412.4h-44.9v-5.7h44.9V412.4z M503.1,392.6l-3,5.7c-8.6-1.7-14.9-6.5-18.1-12.8c-3.3,6.3-9.6,11.1-18.1,12.8
				l-3-5.7c10.9-1.9,17.3-9.7,17.4-16.8v-3.6h7.3v3.6C485.6,383,492,390.7,503.1,392.6z"/>
			<path d="M565.2,412.5h-44.9v-5.6h44.9V412.5z M531.9,380.6h21.4v-8.1h6.9v26.2H525v-26.2h6.9V380.6z M553.3,393.3v-7.3h-21.4v7.3
				H553.3z"/>
			<path d="M588.6,388.6h-12v5c5.4,0,9.4-0.3,14-1.2l0.6,5.4c-5.7,1-10.6,1.2-17.9,1.2H570v-15.5h12v-4.8h-12.1v-5.4h18.7V388.6z
				 M611.4,417.5h-34.5v-15.2h6.9v9.7h27.6V417.5z M610.2,405.8h-6.5v-16.9h-4.3v15.9H593v-34.5h6.4v13.1h4.3v-13.9h6.5V405.8z"/>
			<path d="M660.7,412.4h-44.9v-5.7h44.9V412.4z M655.8,397.5H621v-24.1h34.4v5.6h-27.6V392h27.9V397.5z"/>
			<path d="M683.1,389.2h-5.8v-14.8h5.8V389.2z M692.9,389.2h-5.8v-14.8h5.8V389.2z"/>
			<path d="M725.8,378.4h-4v12.7c2-0.1,4-0.3,5.9-0.5l0.5,5c-10,1.6-21,1.8-29.6,1.8l-0.8-5.7l5.3-0.1v-13.3h-4v-5.6h26.7V378.4z
				 M738.1,418.4h-6.9v-11.6h-26.9v-5.5h33.8V418.4z M715.1,391.5v-13.1h-5.4v13.3L715.1,391.5z M738.1,399.3h-6.9v-30h6.9V399.3z"
				/>
			<path d="M782.2,379.2h-15.4V401c7.1-0.1,12.3-0.4,18.1-1.5l0.7,5.6c-6.7,1.3-12.7,1.6-21.7,1.5h-4v-33h22.4V379.2z M798.9,418.5
				h-6.9v-26.6h-12.4v-5.6h12.4v-17h6.9V418.5z"/>
			<path d="M846.7,378.6h-4v12.2c2-0.1,4-0.4,5.9-0.6l0.5,5c-10,1.9-21.5,2-29.6,2l-0.8-5.6l5.3-0.1v-13h-4v-5.5h26.7V378.6z
				 M861.5,412.8l-2.6,5.3c-8-1.2-13.7-4.6-16.6-9.4c-3,4.8-8.7,8.3-16.5,9.4l-2.7-5.3c10.5-1.5,15.6-6.7,15.6-12.2v-0.8h7.2v0.8
				C845.9,406.1,851,411.4,861.5,412.8z M836,391.3v-12.7h-5.4v12.9L836,391.3z M859,402.5h-6.9v-33.2h6.9V402.5z"/>
			<path d="M872.5,389.2h-5.8v-14.8h5.8V389.2z M882.4,389.2h-5.8v-14.8h5.8V389.2z"/>
			<path d="M930.6,398.6h-43.7v-3.5h43.7V398.6z M925.7,381.1c0,6-6.6,9.5-16.9,9.5c-10.4,0-17-3.6-17-9.5c0-6,6.6-9.5,17-9.5
				C919.1,371.5,925.7,375.1,925.7,381.1z M925.8,416.8h-33.2v-14h4.3v10.4h28.9V416.8z M896.1,381.1c-0.1,3.8,4.9,6.1,12.6,6.1
				c7.7,0,12.6-2.3,12.6-6.1c0-3.8-5-6.1-12.6-6.1C901.1,375,896.1,377.3,896.1,381.1z"/>
			<path d="M20.6,450h14.9v6h-7.2v39.8h7.2v6H20.6V450z"/>
			<path d="M39.9,451.7h15.3c8.9,0,14,5.4,14,13.2c0,7.8-5.2,13.2-14.2,13.2h-7v12.7h-8.1V451.7z M53.7,471.5c4.8,0,7.1-2.7,7.1-6.6
				c0-3.9-2.3-6.5-7.1-6.5H48v13.2H53.7z"/>
			<path d="M82.4,490.8h-8.1v-39.1h8.1V490.8z"/>
			<path d="M106.6,458.3c-6.1,0-10.1,4.7-10.1,12.9c0,8.4,4,12.9,10,12.9c4.5,0,7.8-2.5,8.6-6.7l8.2,0.1c-0.9,7.2-7,13.8-16.9,13.8
				c-10.5,0-18.2-7.3-18.2-20.1c0-12.7,7.9-20.1,18.2-20.1c9,0,15.8,5.2,16.9,14.1h-8.2C114.5,461,111.1,458.3,106.6,458.3z"/>
			<path d="M129,451.7h8.1V469h0.5l14.2-17.3h9.8L147,469.2l14.7,21.6H152l-10.8-16.1l-4.1,5v11.2H129V451.7z"/>
			<path d="M171.8,460.2h5.7c-2.8,4-5.7,12.1-5.7,19.4c0,7.3,2.9,15.4,5.7,19.4h-5.7c-3.9-5.5-6.2-11.8-6.2-19.4
				C165.5,472,167.9,465.7,171.8,460.2z"/>
			<path d="M213.1,490h-33.6v-4.2h12v-12.7h5.1v12.7h16.4V490z M209.9,464.3c0,4.6,0,9.8-1.5,17.6l-5.2-0.5c1.4-7,1.5-12.1,1.5-16.5
				H183v-4.1h26.9V464.3z"/>
			<path d="M249.1,490.3h-33.7v-4.2h33.7V490.3z M245.2,472.4h-20.8v4.2H246v4h-26.8v-12.4h20.8v-4h-20.9v-4.1h26V472.4z"/>
			<path d="M269.9,465.2h-12.1v16.1c5.3-0.1,9.8-0.3,14.6-1.2l0.6,4.3c-5.7,1-10.7,1.1-17.2,1.1h-3.1v-24.6h17.3V465.2z
				 M280.2,471.3h5.4v4.2h-5.4v19H275v-36.9h5.2V471.3z"/>
			<path d="M292.5,499h-5.7c2.8-4,5.7-12.1,5.7-19.4c0-7.2-2.9-15.3-5.7-19.4h5.7c3.9,5.5,6.2,11.8,6.2,19.4
				C298.8,487.2,296.4,493.6,292.5,499z"/>
			<path d="M303.1,501.8v-6h7.2V456h-7.2v-6H318v51.7H303.1z"/>
			<path d="M339.5,480.8c5.3-0.2,10.8-0.5,15.8-1.1l0.2,3.2c-10.1,1.6-21.4,1.8-29.9,1.7l-0.5-3.5c3.2,0,6.7-0.1,10.4-0.2v-14.7h4.2
				V480.8z M352.1,455c-0.1,3.8-0.1,10.1-1.4,19l-4.3-0.4c1.3-8,1.4-13.9,1.4-17.7h-20.1v-3.5h24.4V455z M362.5,467.2h7.8v3.7h-7.8
				v24.2h-4.2v-48h4.2V467.2z"/>
			<path d="M390.7,450h14.9v6h-7.2v39.8h7.2v6h-14.9V450z"/>
			<path d="M410,451.7h25.7v6.7h-17.6v9.5h16v6.7h-16v16.2H410V451.7z"/>
			<path d="M449.1,490.8H441v-39.1h8.1V490.8z"/>
			<path d="M454.2,451.7h32v6.7h-12v32.4h-8v-32.4h-12V451.7z"/>
			<path d="M497.4,460.2h5.7c-2.8,4-5.7,12.1-5.7,19.4c0,7.3,2.9,15.4,5.7,19.4h-5.7c-3.9-5.5-6.2-11.8-6.2-19.4
				C491.2,472,493.5,465.7,497.4,460.2z"/>
			<path d="M523.9,476.2h-17.7v-16.1h17.7V476.2z M534.8,484.1h-9.4c0.9,2.8,4.5,5.5,11,6.4l-1.8,3.9c-5.9-0.8-10.1-3.2-12.2-6.3
				c-2.1,3.2-6.3,5.5-12.1,6.2l-1.9-3.9c6.6-0.8,10.2-3.4,11-6.3H510V480h24.8V484.1z M511.3,472.1h7.5v-8h-7.5V472.1z M534.4,465.7
				h5v4.2h-5v8.4h-5.2v-20.6h5.2V465.7z"/>
			<path d="M559.7,465.2h-12.1v16.1c5.3-0.1,9.8-0.3,14.6-1.2l0.6,4.3c-5.7,1-10.7,1.1-17.2,1.1h-3.1v-24.6h17.3V465.2z M570,471.3
				h5.4v4.2H570v19h-5.2v-36.9h5.2V471.3z"/>
			<path d="M582.4,499h-5.7c2.8-4,5.7-12.1,5.7-19.4c0-7.2-2.9-15.3-5.7-19.4h5.7c3.9,5.5,6.2,11.8,6.2,19.4
				C588.6,487.2,586.2,493.6,582.4,499z"/>
			<path d="M592.9,501.8v-6h7.2V456h-7.2v-6h14.9v51.7H592.9z"/>
			<path d="M659.2,488.8h-43.9v-3.6h43.9V488.8z M654.7,463.5c0,8-7.5,13.2-17.5,13.2c-10,0.1-17.5-5.2-17.5-13.2
				c0-7.9,7.5-13.2,17.5-13.2C647.2,450.3,654.7,455.5,654.7,463.5z M623.6,463.5c-0.1,5.8,5.8,9.7,13.5,9.7
				c7.7,0,13.4-3.9,13.4-9.7c0-5.7-5.8-9.8-13.4-9.7C629.4,453.7,623.6,457.8,623.6,463.5z"/>
			<path d="M706.9,489.2H663v-3.6h19.7v-9.1h-14.2v-14.8h28.7v-7.6h-28.8v-3.5h33v14.5h-28.6v7.8h29.8v3.5h-15.6v9.1h20V489.2z"/>
			<path d="M23.4,543.8h-5.8V529h5.8V543.8z"/>
			<path d="M35.9,555.3c6.3-0.1,13-0.7,20.1-2.1l0.7,5.7c-8.2,1.7-16.2,2.1-23.4,2.1H29v-32.3h6.9V555.3z M73.1,548.2h-7V573h-6.9
				v-49h6.9v18.6h7V548.2z"/>
			<path d="M107.5,570.8H101v-23.2h-3.9c-0.6,9.7-4.7,15.5-10.8,15.5c-6.5,0-10.7-6.8-10.7-17.9c0-11,4.2-17.7,10.7-17.7
				c5.9,0,10,5.5,10.7,14.7h4v-17.5h6.5V570.8z M82,545.2c-0.1,7.6,1.6,11.3,4.3,11.2c2.8,0.1,4.5-3.7,4.5-11.2
				c0-7.5-1.7-11.3-4.5-11.3C83.5,534,81.9,537.7,82,545.2z M117.7,573.1h-6.6V524h6.6V573.1z"/>
			<path d="M155,570.9h-6.4v-22.5h-8c-2.8,5.6-7.4,10.5-14.3,14.5l-3.9-4.9c9.9-5.9,14.3-13,15.2-22.7H125v-5.6h19.4
				c0,4.7-0.5,9.1-1.7,13.1h5.9v-17.9h6.4V570.9z M165.5,573.1H159V524h6.5V573.1z"/>
			<path d="M208.4,548.7h-23.6v-21.5h23.6V548.7z M222.9,559.3h-12.6c1.2,3.7,6,7.3,14.7,8.5l-2.4,5.2c-7.9-1.1-13.4-4.2-16.2-8.4
				c-2.8,4.2-8.4,7.3-16.2,8.3l-2.5-5.2c8.8-1.1,13.6-4.6,14.7-8.4h-12.6v-5.4h33.1V559.3z M191.7,543.2h10v-10.6h-10V543.2z
				 M222.3,534.7h6.6v5.6h-6.6v11.2h-6.9V524h6.9V534.7z"/>
			<path d="M276,553.4h-44.9V548H276V553.4z M271.3,572h-35.1v-14.6h6.9v9.1h28.2V572z M271,542.8h-34.3v-17h6.9v11.7H271V542.8z"/>
			<path d="M295.1,554.5l-3-5.4c11.1-3.3,16.5-8.7,17.5-15.9h-14.9v-5.4h22.3C317.1,541,310,549.8,295.1,554.5z M335.3,567.4
				l-2.8,5.4c-7.7-1.3-13.3-4.7-16.2-9.5c-3,4.8-8.6,8.3-16.3,9.5l-2.7-5.4c10.4-1.5,15.6-7.2,15.6-12.8v-1.7h6.8v1.7
				C319.8,560.2,325,565.8,335.3,567.4z M333,556.6h-6.9v-14h-8.7V537h8.7V524h6.9V556.6z"/>
			<path d="M384.1,549.2h-44.8v-5.4h44.8V549.2z M379.6,533c-0.1,5.4-6.6,8.4-17.9,8.4c-11.3,0-17.9-3-17.9-8.4
				c0-5.4,6.6-8.4,17.9-8.4C373,524.7,379.5,527.6,379.6,533z M378.7,564.6h-27.3v3H380v5.2h-35.4v-12.9h27.3v-2.7h-27.3v-5h34.1
				V564.6z M351.1,533c-0.1,2.4,3.5,3.3,10.7,3.3c7.3,0,10.7-0.9,10.7-3.3c0-2.2-3.5-3.3-10.7-3.3C354.5,529.7,351,530.9,351.1,533z
				"/>
			<path d="M444.6,567.1h-44.8v-5.6h16v-16.9h6.9v16.9h21.9V567.1z M440.3,532.9c0,6.1,0,13.1-2,23.5l-6.9-0.7
				c1.9-9.3,1.9-16.2,2-22h-28.9v-5.4h35.8V532.9z"/>
			<path d="M492.5,567.5h-44.9v-5.6h44.9V567.5z M487.3,543.6h-27.7v5.6h28.8v5.4h-35.7v-16.5h27.8v-5.3h-27.8v-5.5h34.6V543.6z"/>
			<path d="M520.3,534.1h-16.2v21.5c7.1-0.1,13-0.4,19.5-1.6l0.8,5.8c-7.6,1.3-14.3,1.5-23,1.5h-4.2v-32.7h23V534.1z M534.1,542.2
				h7.2v5.6h-7.2v25.4h-6.9V524h6.9V542.2z"/>
			<path d="M549.9,543.8h-5.8V529h5.8V543.8z"/>
			<path d="M592,546.1h-17.5v11.2c8.9,0,15.1-0.3,22.4-1.7l0.4,3.5c-7.6,1.4-14,1.7-23.2,1.8h-3.8v-18.3h17.5v-10.1h-17.6V529H592
				V546.1z M605.4,543.6h8v3.6h-8v25.4h-4.2v-48.1h4.2V543.6z"/>
			<path d="M659.9,552.5H616V549h43.9V552.5z M655.1,571.3h-33.4v-13.9h4.2v10.4h29.2V571.3z M654.8,542.5H622v-16.2h4.2v12.8h28.6
				V542.5z"/>
			<path d="M721.4,551.1h-43.7v-3.5h43.7V551.1z M718,568.9l-1.6,3.3c-7.3-1.2-13.9-4.6-16.8-9.9c-2.9,5.3-9.5,8.7-16.8,9.9
				l-1.6-3.3c8.7-1.2,16.3-6,16.3-12.5v-1.6h4.3v1.6C701.7,562.9,709.3,567.7,718,568.9z M698.2,530.3h-12.1v9.3
				c4.2-0.1,8.2-0.4,12.8-1.4l0.5,3.5c-5.4,1.2-10,1.3-14.8,1.3h-2.8v-16.2h16.5V530.3z M717.6,543.1h-16.7v-16.2h16.2v3.5h-12v9.3
				h12.4V543.1z"/>
			<path d="M769.1,548.7h-43.7v-3.5h43.7V548.7z M764.2,533.6c0,5.4-6.3,8.4-16.9,8.4c-10.7-0.1-17-3-17-8.4c0-5.3,6.3-8.3,17-8.3
				C757.9,525.4,764.2,528.3,764.2,533.6z M763.5,563.6H735v5h29.9v3.3h-34.1v-11.4h28.5v-4.4h-28.6v-3.2h32.8V563.6z M734.7,533.6
				c-0.1,3.3,4.6,5.2,12.6,5.2c7.9,0,12.6-1.8,12.6-5.2c0-3.1-4.7-5.1-12.6-5.1C739.3,528.6,734.6,530.5,734.7,533.6z"/>
			<path d="M789.7,563.4l-2.4-3.3c12.4-6.2,19.2-15.4,20.1-26.8h-17.9v-3.6h22.2C811.7,543.3,805.4,555.6,789.7,563.4z M824.1,544
				h7.8v3.6h-7.8v24.9h-4.2v-48h4.2V544z"/>
			<path d="M864.9,558.7l-2.4,3.3c-5.6-2.6-10.5-8.1-12.7-14.7c-2.3,7-7.1,13.2-12.6,15.9l-2.5-3.3c6.9-3.3,12.8-12.4,12.9-20.7V533
				h-11.3v-3.5h27v3.5h-11.4v6.3C851.9,547.4,857.8,555.6,864.9,558.7z M874.3,572.5H870v-48h4.3V572.5z"/>
			<path d="M926.2,565.7h-43.7v-3.5h17.2V545h4.2v17.2h22.4V565.7z M921,534.2c-0.1,5.9-0.1,12.5-1.8,22.1l-4.3-0.5
				c1.8-9.2,1.8-15.9,1.8-21.6v-1.3h-29.6v-3.5H921V534.2z"/>
			<path d="M970.4,538.6c0,6.6-5.3,11.1-12.6,11.1s-12.6-4.5-12.6-11.1c0-6.7,5.3-11.2,12.6-11.2S970.4,531.9,970.4,538.6z
				 M967.2,568.1c4.5-2.8,7-7.6,7-11.3v-2.6h4.2v2.6c0,4.9,3.6,9.9,9.8,12l-2.1,3.1c-4.8-1.7-8.2-5-9.8-9.1
				c-1.5,3.9-4.4,7.6-8.8,9.4c-4.7-1.8-7.6-5.3-9.1-9.3c-1.7,3.9-5,7.2-9.6,9l-2.2-3.1c6-2.3,9.7-7.4,9.8-12v-2.6h4.1v2.6
				C960.3,561,962.6,565.5,967.2,568.1z M949.4,538.6c-0.1,4.4,3.5,7.6,8.4,7.6c4.9-0.1,8.4-3.2,8.4-7.6c0-4.5-3.6-7.7-8.4-7.6
				C952.9,530.9,949.3,534.1,949.4,538.6z M983.7,552h-4.2v-27.4h4.2V552z"/>
			<path d="M1035.5,549.9h-43.7v-3.5h43.7V549.9z M1033.1,539.6l-1.6,3.4c-7.4-1.1-14.7-4.9-17.7-10.3c-3.1,5.4-10.4,9.2-17.8,10.3
				l-1.6-3.4c8.5-1.1,17.2-6.2,17.2-12.3v-2.3h4.4v2.3C1015.9,533.3,1024.6,538.5,1033.1,539.6z M1001.6,558.9h24v-5.6h4.3v18.5
				h-32.4v-18.5h4.2V558.9z M1025.6,568.4v-6.1h-24v6.1H1025.6z"/>
			<path d="M1046.9,556.5c7.3,0,14.9-0.6,22.9-2.3l0.6,3.6c-8.5,1.8-16.1,2.4-23.8,2.4h-3.9v-30.9h4.2V556.5z M1079.1,572.5h-4.2
				v-48h4.2V572.5z"/>
			<path d="M1111.8,532.7h-18.2V557c8.7,0,14.8-0.4,22-1.7l0.5,3.7c-7.5,1.3-13.8,1.6-22.9,1.6h-3.8v-31.3h22.4V532.7z
				 M1124.4,543.5h8v3.6h-8v25.5h-4.2v-48.1h4.2V543.5z"/>
			<path d="M1136.7,564.9c-0.1-1.9,1.6-3.5,3.5-3.5c1.9,0,3.5,1.6,3.5,3.5c0,1.9-1.6,3.5-3.5,3.5
				C1138.3,568.4,1136.6,566.9,1136.7,564.9z"/>
			<path d="M39.9,688.8h-4.2V711c1.8-0.1,3.5-0.3,5.1-0.5l0.2,3.1c-7.6,1.4-17.7,1.6-24.1,1.6l-0.5-3.6l5.2-0.1v-22.8h-4.2v-3.5
				h22.4V688.8z M31.8,711.3v-22.5h-6.1v22.8C27.7,711.5,29.8,711.4,31.8,711.3z M58.1,727.2H54v-25h-6.5v22.5h-4v-44.4h4v18.3H54
				v-19.4h4.1V727.2z"/>
			<path d="M92.9,704.5l-2.4,3.3c-5.3-2.2-9.4-6.6-11.4-12c-2.1,5.9-6.4,10.6-12,12.9l-2.3-3.4c7.1-2.8,12.1-9.7,12.1-17.2v-6.2h4.2
				v6.2C81.2,695.1,86,701.7,92.9,704.5z M105.6,726.1H73.5v-14.8h4.3v11.2h27.8V726.1z M104.5,715.1h-4.3v-15.4h-9.9v-3.5h9.9v-6.4
				h-9.9v-3.5h9.9v-7.1h4.3V715.1z"/>
			<path d="M144,724.7h-4v-23.3h-6.1c-0.5,9.3-4.4,15.2-10.4,15.2c-6.3,0-10.3-6.5-10.3-16.7c0-10.2,4-16.7,10.3-16.7
				c5.8,0,9.8,5.6,10.3,14.7h6.2v-17.7h4V724.7z M117.1,699.9c-0.1,7.8,2.4,12.7,6.3,12.6c3.9,0.1,6.4-4.9,6.4-12.6
				c0-7.8-2.5-12.7-6.4-12.7C119.5,687.2,117,692.1,117.1,699.9z M153.6,727.2h-4.1v-48h4.1V727.2z"/>
			<path d="M188.4,703.8c5.3-0.2,10.8-0.6,15.8-1.3l0.3,3.1c-10,1.7-21.6,1.9-30.2,1.9l-0.4-3.5c3.1,0,6.6-0.1,10.3-0.2v-10.4h4.2
				V703.8z M200.7,685.5c-0.1,3.1-0.1,7.9-1.2,14.2l-4.3-0.3c1.2-5.7,1.3-9.8,1.3-12.8h-19.7v-3.6h23.9V685.5z M213.3,726.1h-32V712
				h4.3v10.5h27.8V726.1z M211.7,694.8h7v3.6h-7v16.8h-4.3v-36.1h4.3V694.8z"/>
			<path d="M251,701.1l-2.2,3.2c-5.6-1.9-10-6-12.1-11.2c-2.1,5.6-6.6,10-12.4,12.1l-2.2-3.3c7.3-2.5,12.3-9,12.3-16.1v-4.7h4.3v4.7
				C238.8,692.6,244,698.6,251,701.1z M261.5,726.5h-31.2v-17.3h31.2V726.5z M234.4,723.1h22.9v-10.4h-22.9V723.1z M261.5,706.5
				h-4.2v-27.2h4.2V706.5z"/>
			<path d="M295.9,693.3c0,6.6-5.3,11.1-12.6,11.1c-7.3,0-12.6-4.5-12.6-11.1c0-6.7,5.3-11.2,12.6-11.2
				C290.6,682.1,295.9,686.6,295.9,693.3z M292.7,722.7c4.5-2.8,7-7.6,7-11.3v-2.6h4.2v2.6c0,4.9,3.6,9.9,9.8,12l-2.1,3.1
				c-4.8-1.7-8.2-5-9.8-9.1c-1.5,3.9-4.4,7.6-8.8,9.4c-4.7-1.8-7.6-5.3-9.1-9.3c-1.7,3.9-5,7.2-9.6,9l-2.2-3.1c6-2.3,9.7-7.4,9.8-12
				v-2.6h4.1v2.6C285.8,715.6,288.1,720.1,292.7,722.7z M274.9,693.3c-0.1,4.4,3.5,7.6,8.4,7.6c4.9-0.1,8.4-3.2,8.4-7.6
				c0-4.5-3.6-7.7-8.4-7.6C278.4,685.6,274.8,688.8,274.9,693.3z M309.2,706.7H305v-27.4h4.2V706.7z"/>
			<path d="M361.2,707.1h-43.9v-3.5h43.9V707.1z M356.4,726H323V712h4.2v10.4h29.2V726z M356.1,697.2h-32.9V681h4.2v12.8h28.6V697.2
				z"/>
			<path d="M422.9,721H379v-3.6h19.7v-11.7h-14.6v-22.5h33.3v22.5h-14.6v11.7h20V721z M388.3,702.3h25v-15.7h-25V702.3z"/>
			<path d="M470.4,706.9h-43.7v-3.5h43.7V706.9z M465.4,698.1h-33.2v-16.8H465v3.5h-28.5v9.9h29V698.1z M465.8,726.1h-33.4v-14h4.2
				v10.5h29.2V726.1z"/>
			<path d="M514.6,699.6c0,10.2-5.1,16.7-12.2,16.7c-7.2,0-12.2-6.5-12.2-16.7c0-10.2,5.1-16.7,12.2-16.7
				C509.5,683,514.6,689.4,514.6,699.6z M494.2,699.6c0,7.8,3.3,12.9,8.1,12.9c4.8,0,8.1-5.1,8.1-12.9c0-7.8-3.3-12.9-8.1-12.9
				C497.5,686.7,494.2,691.8,494.2,699.6z M527.8,727.3h-4.3v-48.1h4.3V727.3z"/>
			<path d="M579.8,702.8H536v-3.4h43.7V702.8z M574.1,718.2h-28.5v5h29.9v3.5h-34.1V715H570v-4.6h-28.6v-3.3h32.8V718.2z
				 M574.6,695.4h-32.7v-14.6h32.2v3.4h-27.9v7.7h28.4V695.4z"/>
			<path d="M627.5,703.4h-43.7V700h43.7V703.4z M622.6,688.3c0,5.4-6.3,8.4-16.9,8.4c-10.7-0.1-17-3-17-8.4c0-5.3,6.3-8.3,17-8.3
				C616.3,680.1,622.6,683,622.6,688.3z M621.9,718.3h-28.5v5h29.9v3.3h-34.1v-11.4h28.5v-4.4h-28.6v-3.2h32.8V718.3z M593.1,688.3
				c-0.1,3.3,4.6,5.2,12.6,5.2c7.9,0,12.6-1.8,12.6-5.2c0-3.1-4.7-5.1-12.6-5.1C597.7,683.2,593,685.2,593.1,688.3z"/>
			<path d="M665.1,688.6h-13.8v23.1c6.6,0,11.2-0.3,16.5-1.3l0.4,3.6c-5.8,1.2-10.7,1.4-18,1.4h-3.1v-30.2h18V688.6z M686.4,727.2
				h-4V702h-7.1v22.7h-3.9v-44.4h3.9v18.2h7.1v-19.3h4V727.2z"/>
			<path d="M721.1,701.8l-2.3,3.3c-5.3-1.9-9.5-5.9-11.6-10.9c-2,5.6-6.3,10.1-11.9,12.2l-2.3-3.4c7.2-2.7,12-9.1,12-16.5v-5h4.2
				v5.3C709.2,693.5,714.1,699.5,721.1,701.8z M731.1,718.3c0,5.6-5.9,8.7-15.8,8.7c-9.9,0-15.9-3.1-15.9-8.7c0-5.5,6-8.7,15.9-8.7
				C725.1,709.6,731.1,712.8,731.1,718.3z M703.6,718.3c-0.1,3.4,4.4,5.3,11.7,5.4c7.3-0.1,11.7-2,11.7-5.4c0-3.3-4.4-5.3-11.7-5.3
				C708,713,703.6,715,703.6,718.3z M730.6,691.7h7.2v3.6h-7.2v13.1h-4.2v-29.2h4.2V691.7z"/>
			<path d="M784.8,720.8h-43.9v-3.6h43.9V720.8z M780.3,695.5c0,8-7.5,13.2-17.5,13.2c-10,0.1-17.5-5.2-17.5-13.2
				c0-7.9,7.5-13.2,17.5-13.2C772.8,682.3,780.3,687.6,780.3,695.5z M749.2,695.5c-0.1,5.8,5.8,9.7,13.5,9.7
				c7.7,0,13.4-3.9,13.4-9.7c0-5.7-5.8-9.8-13.4-9.7C755,685.7,749.2,689.8,749.2,695.5z"/>
			<path d="M832.5,721.2h-43.9v-3.6h19.7v-9.1h-14.2v-14.8h28.7v-7.6H794v-3.5h33v14.5h-28.6v7.8h29.8v3.5h-15.6v9.1h20V721.2z"/>
			<path d="M840,733.8h-4l3-14.7h5.2L840,733.8z"/>
			<path d="M896.2,698.9l0.3,3c-4.3,0.7-8.8,1.2-13.2,1.4v7.2H879v-7c-5,0.2-9.8,0.2-14,0.2l-0.6-3.5
				C873.6,700.2,885.6,700.2,896.2,698.9z M894.6,693.3l-1.8,3.2c-5.6-1.3-10-4.2-12.1-8.3c-2,4.3-6.4,7.5-12.1,9l-1.9-3.3
				c7-1.6,11.8-6,11.9-11.1v-2.4h4.3v2.4C882.8,687.7,887.7,691.8,894.6,693.3z M876.3,714.3h23.3v-5.2h4.2v17.4h-31.6v-17.4h4.2
				V714.3z M899.5,723.1v-5.4h-23.3v5.4H899.5z M903.7,706.8h-4.2v-27.5h4.2V706.8z"/>
			<path d="M955.8,720.4h-43.7v-3.5h17.2v-17.2h4.2v17.2h22.4V720.4z M950.6,688.8c-0.1,5.9-0.1,12.5-1.8,22.1l-4.3-0.5
				c1.8-9.2,1.8-15.9,1.8-21.6v-1.3h-29.6V684h33.8V688.8z"/>
			<path d="M1000.7,686.6h-4.9v16.8c2.2-0.1,4.4-0.3,6.5-0.5l0.2,3.2c-9.3,1.5-20.3,1.6-28.1,1.6l-0.5-3.6l6.2-0.1v-17.4h-4.9v-3.5
				h25.5V686.6z M1014.8,726.1h-32.2v-14.2h4.3v10.6h27.9V726.1z M991.7,703.6v-17h-7.5v17.3C986.6,703.8,989.1,703.7,991.7,703.6z
				 M1013.5,714.9h-4.3V701h-8.2v-3.6h8.2v-5.6h-8.2v-3.5h8.2v-9.2h4.3V714.9z"/>
			<path d="M1046.5,700.7h-17.9V712c8,0,15.1-0.4,23.6-1.7l0.4,3.6c-8.8,1.4-16.1,1.7-24.4,1.7h-4v-18.3h18v-10.1h-18.1v-3.5h22.3
				V700.7z M1061.1,727.3h-4.2v-48.1h4.2V727.3z"/>
			<path d="M1097.9,688.6h-28.6v-3.5h12.2v-5.9h4.2v5.9h12.2V688.6z M1095.2,700.2c-0.1,5.4-4.7,8.8-11.5,8.8
				c-6.9,0-11.6-3.5-11.5-8.8c-0.1-5.4,4.6-9,11.5-9C1090.5,691.2,1095.1,694.7,1095.2,700.2z M1076.1,700.2c-0.1,3.4,3,5.6,7.5,5.5
				c4.5,0.1,7.5-2.1,7.6-5.5c-0.1-3.4-3.1-5.6-7.6-5.6C1079.1,694.6,1076.1,696.8,1076.1,700.2z M1108.9,726.1h-32.2v-13.8h4.2v10.2
				h28.1V726.1z M1106.7,695.1h7.2v3.6h-7.2v16.6h-4.2v-35.9h4.2V695.1z"/>
			<path d="M60.9,798H17v-3.5h43.9V798z M58.7,780.7l-1.9,3.6c-7.2-1.7-14.9-6.8-18-13.9c-3.1,7.1-10.7,12.2-18,13.9l-1.9-3.6
				c8.3-1.6,17.6-8.8,17.6-17.1v-3.7h4.4v3.7C40.9,771.8,50.3,779.1,58.7,780.7z"/>
			<path d="M89.4,764.5H71.1v9.9h17.2v3.5H71.1v11.6c8.6,0,14.7-0.4,21.9-1.6l0.5,3.5c-7.5,1.2-13.8,1.5-22.9,1.6h-3.8v-32h22.5
				V764.5z M101.9,775.8h8v3.6h-8v25h-4.2v-48h4.2V775.8z"/>
			<path d="M138.5,768.9c0,6.3-5.2,10.6-12.4,10.6c-7.3,0-12.5-4.3-12.5-10.6s5.2-10.6,12.5-10.6
				C133.3,758.4,138.5,762.7,138.5,768.9z M117.8,768.9c-0.1,4.2,3.5,7.1,8.3,7.1c4.7,0,8.3-2.9,8.3-7.1c0-4.2-3.6-7.1-8.3-7.1
				C121.3,761.9,117.7,764.8,117.8,768.9z M152.1,795h-26.9v5.4h28.6v3.4H121v-12h26.9v-5h-27v-3.4h31.2V795z M152.1,781.2h-4.2
				v-24.7h4.2V781.2z"/>
			<path d="M184.6,772.8h-17.7v6.8c8.6,0,15-0.2,22.8-1.5l0.5,3.5c-8,1.3-14.6,1.6-23.5,1.6h-3.9v-13.7h17.6v-6.3h-17.7v-3.6h21.9
				V772.8z M200.2,795.7c0,5.5-6.1,8.6-16.2,8.6s-16.2-3.1-16.2-8.6c0-5.5,6.1-8.7,16.2-8.7S200.2,790.2,200.2,795.7z M171.9,795.7
				c0,3.3,4.6,5.2,12,5.2s12-1.9,12-5.2s-4.5-5.3-12-5.3S171.9,792.5,171.9,795.7z M199.9,786.1h-4.2v-29.5h4.2V786.1z"/>
			<path d="M224.6,795.4l-2.4-3.3c12.4-6.2,19.2-15.4,20.1-26.8h-17.9v-3.6h22.2C246.6,775.3,240.2,787.7,224.6,795.4z M259,776.1
				h7.8v3.6H259v24.9h-4.2v-48h4.2V776.1z"/>
			<path d="M295.9,777c0,10.2-5.1,16.7-12.2,16.7c-7.2,0-12.2-6.5-12.2-16.7c0-10.2,5.1-16.7,12.2-16.7
				C290.8,760.3,295.9,766.8,295.9,777z M275.5,777c0,7.8,3.3,12.9,8.1,12.9c4.8,0,8.1-5.1,8.1-12.9c0-7.8-3.3-12.9-8.1-12.9
				C278.8,764.1,275.5,769.2,275.5,777z M309.1,804.6h-4.3v-48.1h4.3V804.6z"/>
			<path d="M361.3,798h-43.9v-3.6h43.9V798z M356.1,783.1H323V761h32.6v3.5h-28.4v15.1h28.9V783.1z"/>
			<path d="M409,782.2H365v-3.3H409V782.2z M403.4,796.2h-28.8v4.6H405v3.1h-34.6v-10.6h28.9v-4.1h-28.9V786h33.1V796.2z
				 M403.3,767.9H375v4.2h29.2v3.1h-33.4V765H399v-3.9h-28.4V758h32.7V767.9z"/>
			<path d="M451.1,790.6l-2.6,3.1c-4.7-2.8-8.1-8-9.7-14.1c-1.8,6.6-5.2,12.2-10,15.3l-2.7-3.2c6.7-4,10.6-12.7,10.6-21.5v-4.5h-9.2
				v-3.5h22.1v3.5h-8.8v4.5C440.8,778.5,444.5,786.8,451.1,790.6z M458,802h-4v-24.7h-8.1v-3.5h8.1v-16.1h4V802z M467.7,804.5h-4
				v-48h4V804.5z"/>
			<path d="M518.1,782.4h-43.6v-3.5h18.1v-9.3h4.2v9.3h21.4V782.4z M513,795.6c0,5.5-6.5,8.7-16.8,8.7c-10.2,0-16.8-3.2-16.8-8.7
				c0-5.6,6.5-8.8,16.8-8.8C506.4,786.8,513,790.1,513,795.6z M512.6,763.1c0,3.9,0,7.8-1.3,12.7l-4.2-0.5c1.3-5,1.3-8.5,1.3-12.2
				v-0.6h-28.7V759h32.9V763.1z M483.6,795.6c-0.1,3.3,4.9,5.4,12.6,5.4c7.7,0,12.6-2.1,12.6-5.4c-0.1-3.4-5-5.5-12.6-5.6
				C488.5,790.1,483.5,792.2,483.6,795.6z"/>
			<path d="M550.9,765h-28.6v-3.5h12.2v-5.4h4.2v5.4h12.2V765z M548.1,775.6c-0.1,5.1-4.6,8.4-11.5,8.4c-7,0-11.6-3.3-11.5-8.4
				c-0.1-5.1,4.6-8.4,11.5-8.4C543.5,767.2,548.1,770.5,548.1,775.6z M529.1,775.6c-0.1,3.1,3,5.2,7.5,5.2c4.5,0,7.5-2.1,7.6-5.2
				c-0.1-3.1-3.1-5.2-7.6-5.1C532.1,770.4,529,772.6,529.1,775.6z M533.6,791.6h21.9v-5.1h4.2v17.3h-30.3v-17.3h4.2V791.6z
				 M555.5,800.4V795h-21.9v5.4H555.5z M559.7,768.8h7.2v3.6h-7.2v12h-4.2v-27.9h4.2V768.8z"/>
			<path d="M577.2,788.5c7.3,0,14.9-0.6,22.9-2.3l0.6,3.6c-8.5,1.8-16.1,2.4-23.8,2.4h-3.9v-30.9h4.2V788.5z M609.5,804.5h-4.2v-48
				h4.2V804.5z"/>
			<path d="M642.2,764.7H624V789c8.7,0,14.8-0.4,22-1.7l0.5,3.7c-7.5,1.3-13.8,1.6-22.9,1.6h-3.8v-31.3h22.4V764.7z M654.8,775.5h8
				v3.6h-8v25.5h-4.2v-48.1h4.2V775.5z"/>
			<path d="M667,796.9c-0.1-1.9,1.6-3.5,3.5-3.5c1.9,0,3.5,1.6,3.5,3.5c0,1.9-1.6,3.5-3.5,3.5C668.6,800.4,667,798.9,667,796.9z"/>
			<path d="M60.9,875.6H17v-3.5h43.9V875.6z M55.9,863.3H22.7V838h32.6v3.6H27v7.1h27.3v3.4H27v7.7h28.9V863.3z"/>
			<path d="M84,851.5H71.1v7.6c6.3,0,11-0.3,16.6-1.4l0.5,3.5c-6.1,1.2-11.2,1.4-18.2,1.4H67v-14.2h12.9v-7.1h-13v-3.4H84V851.5z
				 M107,880.8H74.1v-14.5h4.2v10.9H107V880.8z M96,868.7h-4v-17.9h-6v-3.6h6v-12.5h4V868.7z M105.5,870h-4v-36h4V870z"/>
			<path d="M156.4,875.3h-43.9v-3.6h43.9V875.3z M151.2,860.5h-33.1v-22.1h32.6v3.5h-28.4V857h28.9V860.5z"/>
			<path d="M187.5,848.3c-0.1,6-4.4,10.3-10.6,11.1v8.2c4.5-0.2,9-0.5,13.2-1.1l0.3,3.2c-10.1,1.7-21.5,1.8-29.9,1.8l-0.7-3.6
				c3.9,0,8.3-0.1,12.9-0.2v-8.3c-6.4-0.7-10.7-5-10.7-11.1c-0.1-6.7,5.3-11.2,12.8-11.3C182.1,837.1,187.4,841.6,187.5,848.3z
				 M166.1,848.3c-0.1,4.5,3.6,7.6,8.6,7.6c5,0,8.6-3.1,8.6-7.6c-0.1-4.5-3.7-7.6-8.6-7.6C169.7,840.7,166,843.8,166.1,848.3z
				 M197.3,853.7h7.8v3.7h-7.8v24.5h-4.2v-48h4.2V853.7z"/>
			<path d="M224.8,872.8l-2.3-3.5c13-6.1,19.6-15.3,20.6-26.8h-18.3v-3.5h22.7C247.3,852.9,240.9,865.1,224.8,872.8z M261.5,881.8
				h-4.3v-48h4.3V881.8z"/>
			<path d="M279.6,841.9h23.7v-6.1h4.2V855h-14v5.1h19.7v3.5h-43.7v-3.5h19.7V855h-13.9v-19.2h4.2V841.9z M308.4,880.8h-33.2v-13.4
				h4.3v9.8h28.9V880.8z M303.4,851.6v-6.3h-23.7v6.3H303.4z"/>
			<path d="M361,858.1h-43.7v-3.5H361V858.1z M356.1,843c0,5.4-6.3,8.4-16.9,8.4c-10.7-0.1-17-3-17-8.4c0-5.3,6.3-8.3,17-8.3
				C349.9,834.7,356.1,837.6,356.1,843z M355.4,873H327v5h29.9v3.3h-34.1v-11.4h28.5v-4.4h-28.6v-3.2h32.8V873z M326.6,843
				c-0.1,3.3,4.6,5.2,12.6,5.2c7.9,0,12.6-1.8,12.6-5.2c0-3.1-4.7-5.1-12.6-5.1C331.2,837.9,326.6,839.9,326.6,843z"/>
			<path d="M422.9,875.7H379v-3.6h19.7v-11.7h-14.6v-22.5h33.3v22.5h-14.6v11.7h20V875.7z M388.3,857h25v-15.7h-25V857z"/>
			<path d="M470.6,865.1h-20v16.6h-4.2v-16.6h-19.7v-3.5h43.9V865.1z M464.9,855.2h-32.2v-18.5h31.6v3.5h-27.2v11.6h27.9V855.2z"/>
			<path d="M511.8,840.6h-17v14.1c9.6,0.1,15.1-0.3,21.5-1.6l0.5,3.5c-6.7,1.3-12.5,1.6-22.5,1.6h-3.7v-21.1h21.3V840.6z
				 M525.8,881.2h-30.3v-17.6h30.3V881.2z M499.7,877.7h21.9V867h-21.9V877.7z M525.8,845.6h7.2v3.6h-7.2v11.9h-4.2v-27.2h4.2V845.6
				z"/>
			<path d="M561,854.3C561,864.5,556,871,548.9,871c-7.1,0-12.1-6.5-12.1-16.7c0-10.2,5-16.7,12.1-16.7
				C556,837.6,561,844.1,561,854.3z M540.8,854.3c0,7.8,3.3,12.9,8.1,12.9c4.8,0,8-5.1,8-12.9c0-7.8-3.2-12.9-8-12.9
				C544.1,841.4,540.8,846.5,540.8,854.3z M573.2,853h8v3.7h-8v25.1H569v-48h4.2V853z"/>
			<path d="M587.5,888.5h-4l3-14.7h5.2L587.5,888.5z"/>
			<path d="M35.2,945.3c4.6-0.2,9.3-0.6,13.8-1.2l0.3,3.1c-11,2-22.8,2-31.4,2l-0.6-3.5c4,0,8.8-0.1,13.8-0.2v-9h4.2V945.3z
				 M46.5,921H35.2c0.1,6.2,5.3,11.2,12.4,13.3l-2,3.3c-5.8-1.7-10.3-5.4-12.4-10.3c-2.1,5.2-6.6,9-12.4,10.7l-2-3.2
				c7.1-2.1,12.1-7.3,12.2-13.8h-11v-3.5h11.1v-5.9h4.2v5.9h11.3V921z M56.4,959.3h-4.2v-48.1h4.2V959.3z"/>
			<path d="M93.8,935.2l-2.2,3.4c-5.6-2.1-9.9-6.4-12-12c-2.1,5.9-6.5,10.6-12.1,12.8l-2.3-3.3c7.3-2.8,12.2-9.9,12.2-17.4V914h4.3
				v4.8C81.7,926,86.7,932.6,93.8,935.2z M105.9,958.1H73.4v-14.9h4.2v11.4h28.3V958.1z M104.4,946.4h-4.2v-35.2h4.2V946.4z"/>
			<path d="M170.2,942.1h-11.6v17.1h-4.3v-17.1h-12.3v17.1h-4.4v-17.1h-11.4v-3.5h43.9V942.1z M165.1,923.6
				c0,6.4-6.8,10.4-16.9,10.4c-10.1,0.1-16.9-4-16.9-10.4c0-6.4,6.8-10.5,16.9-10.5C158.3,913.1,165.1,917.2,165.1,923.6z
				 M135.7,923.6c-0.1,4.3,5,7,12.5,7c7.4,0,12.6-2.7,12.6-7c0-4.3-5.1-7-12.6-7C140.7,916.6,135.6,919.4,135.7,923.6z"/>
			<path d="M198.5,920.4h-24.6V917h10.2v-5.4h4.2v5.4h10.1V920.4z M196.5,931.2c-0.1,4.9-4.2,8.1-10.3,8.1c-6,0-10.3-3.2-10.2-8.1
				c-0.1-5,4.2-8.2,10.2-8.2C192.3,923,196.5,926.1,196.5,931.2z M179.7,931.2c0,3,2.6,5,6.5,5c3.8,0,6.5-2,6.5-5
				c0-3-2.6-5.1-6.5-5.1C182.4,926.1,179.7,928.1,179.7,931.2z M215.1,950.8c0,5.2-6,8.3-16.1,8.3s-16.1-3-16.1-8.3
				c-0.1-5.4,6-8.4,16.1-8.4S215.1,945.4,215.1,950.8z M187.1,950.8c-0.1,3.1,4.4,5,11.9,5s11.9-1.8,11.9-5
				c-0.1-3.3-4.5-5.1-11.9-5.1C191.5,945.7,187.1,947.5,187.1,950.8z M214.9,941.6h-4v-13.8h-6.4v12h-4v-27.7h4v12.1h6.4v-13.1h4
				V941.6z"/>
			<path d="M258.6,920.8h-4.2V943c1.8-0.1,3.5-0.3,5.1-0.5l0.2,3.1c-7.6,1.4-17.7,1.6-24.1,1.6l-0.5-3.6l5.2-0.1v-22.8h-4.2v-3.5
				h22.4V920.8z M250.5,943.3v-22.5h-6.1v22.8C246.4,943.5,248.5,943.4,250.5,943.3z M276.8,959.2h-4.1v-25h-6.5v22.5h-4v-44.4h4
				v18.3h6.5v-19.4h4.1V959.2z"/>
			<path d="M311.6,936.5l-2.4,3.3c-5.3-2.2-9.4-6.6-11.4-12c-2.1,5.9-6.4,10.6-12,12.9l-2.3-3.4c7.1-2.8,12.1-9.7,12.1-17.2V914h4.2
				v6.2C299.9,927.1,304.7,933.8,311.6,936.5z M324.3,958.1h-32.1v-14.8h4.3v11.2h27.8V958.1z M323.2,947.1H319v-15.4h-9.9v-3.5h9.9
				v-6.4h-9.9v-3.5h9.9v-7.1h4.3V947.1z"/>
			<path d="M375.1,943.1h-20v16h-4.2v-16h-19.7v-3.5h43.9V943.1z M341,919.8h24.2v-6.6h4.3v20.7h-32.6v-20.7h4.2V919.8z
				 M365.1,930.4v-7.1H341v7.1H365.1z"/>
			<path d="M403.6,919.1h-18.1v10h16v3.5h-16v11.6c8.8,0,14.4-0.3,21-1.5l0.5,3.5c-7,1.1-12.8,1.5-22.1,1.5h-3.7v-32h22.4V919.1z
				 M418.7,959.3h-4.2v-26.4h-10.1v-3.5h10.1v-18.1h4.2V959.3z"/>
			<path d="M443.5,950.2l-2.3-3.5c13-6.1,19.6-15.3,20.6-26.8h-18.3v-3.5H466C466,930.2,459.6,942.4,443.5,950.2z M480.2,959.2H476
				v-48h4.3V959.2z"/>
			<path d="M498.3,919.2h23.7v-6.1h4.2v19.2h-14v5.1H532v3.5h-43.7v-3.5h19.7v-5.1h-13.9v-19.2h4.2V919.2z M527.1,958.1H494v-13.4
				h4.3v9.8h28.9V958.1z M522.1,928.9v-6.3h-23.7v6.3H522.1z"/>
			<path d="M574.9,931.7c-0.1,10.2-5.1,16.7-12.1,16.7c-7.1,0-12.1-6.5-12.1-16.7s5-16.7,12.1-16.7
				C569.8,915,574.8,921.5,574.9,931.7z M554.7,931.7c0,7.8,3.3,12.9,8.1,12.9c4.8,0,8-5.1,8-12.9c0-7.8-3.2-12.9-8-12.9
				C558,918.8,554.7,923.8,554.7,931.7z M587,930.4h8v3.7h-8v25.1h-4.2v-48h4.2V930.4z"/>
			<path d="M623.9,931.7c0,10.2-5.1,16.7-12.2,16.7c-7.2,0-12.2-6.5-12.2-16.7s5.1-16.7,12.2-16.7
				C618.8,915,623.9,921.5,623.9,931.7z M603.5,931.7c0,7.8,3.3,12.9,8.1,12.9s8.1-5.1,8.1-12.9c0-7.8-3.3-12.9-8.1-12.9
				C606.9,918.8,603.5,923.8,603.5,931.7z M637.2,959.3h-4.3v-48.1h4.3V959.3z"/>
			<path d="M666,917.9h-14.2v5.9H664v3.3h-12.2v6.5c6.9,0,11.2-0.3,16.4-1.2l0.4,3.4c-5.6,1-10.1,1.3-17.9,1.3h-3v-22.8H666V917.9z
				 M686.1,958.5h-31.7v-16.2h31.7V958.5z M658.6,955.1H682v-9.3h-23.4V955.1z M676.8,939.7h-4.1v-12.9h-6.5v-3.5h6.5v-11.2h4.1
				V939.7z M686.1,940.1h-4v-28.9h4V940.1z"/>
			<path d="M696.4,948.3l-3.4-2.4c7.3-7.4,10.2-16.3,10.7-25.9h-9.2v-3.6h13.2C707.7,927.9,705.1,939.1,696.4,948.3z M710.2,951.5
				l-3.5-2.4c7.5-8.5,9.8-19.1,10.1-29.1h-7.7v-3.6h11.7C720.8,927.8,719.1,941,710.2,951.5z M731.1,931h7.3v3.6h-7.3v24.6h-4.3v-48
				h4.3V931z"/>
			<path d="M771,945.4l-2.4,3.3c-5.6-2.6-10.5-8.1-12.7-14.7c-2.3,7-7.1,13.2-12.6,15.9l-2.5-3.3c6.9-3.3,12.8-12.4,12.9-20.7v-6.3
				h-11.3v-3.5h27v3.5H758v6.3C758,934.1,764,942.3,771,945.4z M780.4,959.2h-4.3v-48h4.3V959.2z"/>
			<path d="M790.2,951.6c-0.1-1.9,1.6-3.5,3.5-3.5c1.9,0,3.5,1.6,3.5,3.5c0,1.9-1.6,3.5-3.5,3.5
				C791.8,955.1,790.2,953.6,790.2,951.6z"/>
			<path d="M41.5,996.7H23.3v24.3c8.7,0,14.8-0.4,22-1.7l0.5,3.7c-7.5,1.3-13.8,1.6-22.9,1.6h-3.8v-31.3h22.4V996.7z M54.1,1007.5h8
				v3.6h-8v25.5h-4.2v-48.1h4.2V1007.5z"/>
			<path d="M90.9,1002.7c-0.1,6.7-5.3,11.2-12.6,11.3c-7.3-0.1-12.6-4.6-12.6-11.3c-0.1-6.7,5.3-11.3,12.6-11.3
				C85.5,991.4,90.8,996,90.9,1002.7z M69.8,1002.7c-0.1,4.5,3.6,7.7,8.4,7.7c4.9-0.1,8.5-3.2,8.5-7.7c0-4.5-3.6-7.7-8.5-7.7
				C73.4,995,69.8,998.2,69.8,1002.7z M102.7,1027.5c0,5.6-6,8.9-15.8,8.9c-9.8,0-15.9-3.3-15.9-8.9c0-5.7,6.1-9,15.9-9
				C96.7,1018.5,102.7,1021.8,102.7,1027.5z M75.2,1027.5c-0.1,3.5,4.4,5.5,11.7,5.5c7.3,0,11.7-2,11.7-5.5c0-3.5-4.4-5.6-11.7-5.6
				C79.7,1021.9,75.2,1024,75.2,1027.5z M109.4,999.3h-7.1v6.7h7.1v3.6h-7.1v7.4h-4.2v-28.5h4.2v7.3h7.1V999.3z"/>
			<path d="M141.2,997.9h-28.6v-3.5h12.2v-5.9h4.2v5.9h12.2V997.9z M138.5,1009.5c-0.1,5.4-4.7,8.8-11.5,8.8
				c-6.9,0-11.6-3.5-11.5-8.8c-0.1-5.4,4.6-9,11.5-9C133.8,1000.6,138.4,1004.1,138.5,1009.5z M119.4,1009.5c-0.1,3.4,3,5.6,7.5,5.5
				c4.5,0.1,7.5-2.1,7.6-5.5c-0.1-3.4-3.1-5.6-7.6-5.6C122.4,1003.9,119.4,1006.1,119.4,1009.5z M152.2,1035.5H120v-13.8h4.2v10.2
				h28.1V1035.5z M150,1004.4h7.2v3.6H150v16.6h-4.2v-35.9h4.2V1004.4z"/>
			<path d="M217.8,1030h-43.7v-3.6h17.2V1014h4.2v12.4h22.4V1030z M212.5,997.9c-0.1,5.8,0,12.4-2,22.2l-4.2-0.5
				c0.9-4.3,1.4-8.1,1.7-11.5l-29.3,1.8l-0.7-3.7l30.2-1.2c0.1-2.5,0.1-4.8,0.1-7v-1.1h-28.9v-3.5h33.1V997.9z"/>
			<path d="M247.8,996.7h-18.6v24.3c9.3,0,15.5-0.3,22.7-1.6l0.4,3.6c-7.4,1.3-13.8,1.6-23.5,1.7H225v-31.6h22.8V996.7z
				 M261.4,1036.6h-4.3v-48.1h4.3V1036.6z"/>
			<path d="M313.5,1014.2h-43.9v-3.3h43.9V1014.2z M308,1028.2h-28.8v4.6h30.4v3.1h-34.6v-10.6h28.9v-4.1h-28.9v-3.2H308V1028.2z
				 M307.8,999.9h-28.3v4.2h29.2v3.1h-33.4V997h28.3v-3.9h-28.4V990h32.7V999.9z"/>
			<path d="M374.9,1017.5h-43.7v-3.5h19.7v-4.7H337v-19.3h32.5v3.5h-28.2v4.5h26.9v3.2h-26.9v4.7h28.5v3.4h-14.6v4.7h19.8V1017.5z
				 M369.6,1028.7c-0.1,5-6,7.7-16.5,7.7c-10.6,0-16.6-2.6-16.6-7.7c0-5,5.9-7.7,16.6-7.7C363.6,1021,369.5,1023.7,369.6,1028.7z
				 M340.8,1028.7c-0.1,2.9,4.4,4.4,12.3,4.4c7.8,0.1,12.2-1.5,12.2-4.4c0-2.9-4.4-4.5-12.2-4.5
				C345.1,1024.3,340.7,1025.9,340.8,1028.7z"/>
			<path d="M402.9,1000.3h-24.1v-3.5h10V990h4.2v6.9h9.9V1000.3z M401.3,1014.4c-0.1,6.4-4.4,11-10.4,11c-6,0-10.3-4.6-10.3-11
				c0-6.4,4.3-10.9,10.3-10.9C396.9,1003.5,401.2,1008.1,401.3,1014.4z M384.4,1014.4c0,4.3,2.8,7.3,6.5,7.3c3.8,0.1,6.6-3,6.6-7.3
				c0-4.2-2.8-7.3-6.6-7.3C387.1,1007.2,384.4,1010.2,384.4,1014.4z M419.8,1036.5h-4v-24.2h-6.4v21.8h-4v-44.4h4v19h6.4v-20.2h4
				V1036.5z"/>
			<path d="M484.5,1030h-43.9v-3.5h43.9V1030z M482.2,1012.7l-1.9,3.6c-7.2-1.7-14.9-6.8-18-13.9c-3.1,7.1-10.7,12.2-18,13.9
				l-1.9-3.6c8.3-1.6,17.6-8.8,17.6-17.1v-3.7h4.4v3.7C464.5,1003.8,473.8,1011.1,482.2,1012.7z"/>
			<path d="M512.9,996.5h-18.2v9.9h17.2v3.5h-17.2v11.6c8.6,0,14.7-0.4,21.9-1.6l0.5,3.5c-7.5,1.2-13.8,1.5-22.9,1.6h-3.8v-32h22.5
				V996.5z M525.4,1007.9h8v3.6h-8v25h-4.2v-48h4.2V1007.9z"/>
			<path d="M562.1,1001c0,6.3-5.2,10.6-12.4,10.6c-7.3,0-12.5-4.3-12.5-10.6s5.2-10.6,12.5-10.6C556.8,990.4,562.1,994.7,562.1,1001
				z M541.3,1001c-0.1,4.2,3.5,7.1,8.3,7.1c4.7,0,8.3-2.9,8.3-7.1c0-4.2-3.6-7.1-8.3-7.1C544.8,993.9,541.3,996.8,541.3,1001z
				 M575.6,1027.1h-26.9v5.4h28.6v3.4h-32.8v-12h26.9v-5h-27v-3.4h31.2V1027.1z M575.6,1013.2h-4.2v-24.7h4.2V1013.2z"/>
			<path d="M627.5,1012.8h-43.7v-3.5h43.7V1012.8z M622.6,997.7c0,5.4-6.3,8.4-16.9,8.4c-10.7-0.1-17-3-17-8.4c0-5.3,6.3-8.3,17-8.3
				C616.3,989.4,622.6,992.3,622.6,997.7z M621.9,1027.7h-28.5v5h29.9v3.3h-34.1v-11.4h28.5v-4.4h-28.6v-3.2h32.8V1027.7z
				 M593.1,997.7c-0.1,3.3,4.6,5.2,12.6,5.2c7.9,0,12.6-1.8,12.6-5.2c0-3.1-4.7-5.1-12.6-5.1C597.7,992.6,593,994.5,593.1,997.7z"/>
			<path d="M652.4,1005.3h14.3v-12.7h4.2v32.4h-22.7v-32.4h4.2V1005.3z M666.7,1021.5v-12.7h-14.3v12.7H666.7z M684.9,1036.6h-4.3
				v-48.1h4.3V1036.6z"/>
			<path d="M736.8,1029.7h-43.7v-3.5H704v-15.8h4.2v15.8h7.8v-15.8h4.2v15.8h16.7V1029.7z M731.7,998.7c0,6.1,0,12.4-1.7,21.3
				l-4.2-0.5c1.7-8.5,1.7-14.8,1.7-20.8v-1.8h-29.8v-3.5h33.9V998.7z"/>
			<path d="M769.2,999.8h-28.5v-3.5H753v-7.1h4.2v7.1h12V999.8z M766.9,1014.8c-0.1,6.5-5,11-11.8,11c-6.9,0-11.8-4.5-11.8-11
				c-0.1-6.5,4.9-11,11.8-11C761.9,1003.8,766.8,1008.3,766.9,1014.8z M747.4,1014.8c-0.1,4.4,3.2,7.4,7.7,7.4
				c4.4,0.1,7.7-3,7.7-7.4c-0.1-4.3-3.3-7.4-7.7-7.4C750.6,1007.3,747.4,1010.4,747.4,1014.8z M778,1008.3h8v3.5h-8v24.7h-4.2v-48
				h4.2V1008.3z"/>
			<path d="M832.3,1029.7h-43.7v-3.5h17.2V1009h4.2v17.2h22.4V1029.7z M827.1,998.2c-0.1,5.9-0.1,12.5-1.8,22.1l-4.3-0.5
				c1.8-9.2,1.8-15.9,1.8-21.6v-1.3h-29.6v-3.5h33.8V998.2z"/>
			<path d="M873.2,995.5h12.6v-7h4.3v28.4h-4.3v-6.9h-12.5c-2.3,2.6-5.7,4.1-9.8,4c-7.2,0.1-12.5-4.6-12.5-11.3
				c0-6.7,5.3-11.4,12.5-11.4C867.5,991.4,871,992.9,873.2,995.5z M855,1002.8c0,4.5,3.5,7.7,8.4,7.7c4.7,0,8.3-3.2,8.3-7.7
				c0-4.5-3.6-7.8-8.3-7.7C858.5,995.1,855,998.3,855,1002.8z M890.2,1027.2c0,5.8-6.1,9.2-16.1,9.2c-10,0-16.1-3.3-16.1-9.2
				c0-5.8,6.1-9.1,16.1-9.1C884,1018.1,890.2,1021.5,890.2,1027.2z M862.2,1027.2c0,3.6,4.6,5.8,11.9,5.8c7.4,0,11.9-2.2,11.9-5.8
				c0-3.6-4.5-5.8-11.9-5.8C866.7,1021.4,862.2,1023.6,862.2,1027.2z M875.9,1002.8c0,1.3-0.2,2.6-0.6,3.8h10.5V999h-10.5
				C875.6,1000.1,875.9,1001.4,875.9,1002.8z"/>
			<path d="M899.6,1016.3l-1.7-3.4c11.8-3.2,19-9.6,19.9-17.7h-17.7v-3.5h22.3C922.3,1003.8,913.8,1012.4,899.6,1016.3z
				 M935.5,1035.9h-30.4V1018h30.4V1035.9z M909.3,1032.4h22v-10.9h-22V1032.4z M935.5,1000.3h7.2v3.5h-7.2v12h-4.2v-27.2h4.2
				V1000.3z"/>
			<path d="M989.4,1012.8h-43.7v-3.5h43.7V1012.8z M984.5,997.7c0,5.4-6.3,8.4-16.9,8.4c-10.7-0.1-17-3-17-8.4c0-5.3,6.3-8.3,17-8.3
				C978.2,989.4,984.5,992.3,984.5,997.7z M983.8,1027.7h-28.5v5h29.9v3.3h-34.1v-11.4h28.5v-4.4H951v-3.2h32.8V1027.7z M955,997.7
				c-0.1,3.3,4.6,5.2,12.6,5.2c7.9,0,12.6-1.8,12.6-5.2c0-3.1-4.7-5.1-12.6-5.1C959.6,992.6,954.9,994.5,955,997.7z"/>
			<path d="M1013.5,998.6h14v-7.3h4.2v22.3h-22.3v-22.3h4.2V998.6z M1027.5,1010.2v-8.1h-14v8.1H1027.5z M1045.2,1022.7h-26.3v9.7
				h27.2v3.5h-31.4v-16.6h30.5V1022.7z M1044.8,1000.1h7.2v3.6h-7.2v12.9h-4.2v-28.1h4.2V1000.1z"/>
			<path d="M1098.8,1012.8h-43.7v-3.5h43.7V1012.8z M1093.9,997.7c0,5.4-6.3,8.4-16.9,8.4c-10.7-0.1-17-3-17-8.4
				c0-5.3,6.3-8.3,17-8.3C1087.6,989.4,1093.9,992.3,1093.9,997.7z M1093.2,1027.7h-28.5v5h29.9v3.3h-34.1v-11.4h28.5v-4.4h-28.6
				v-3.2h32.8V1027.7z M1064.3,997.7c-0.1,3.3,4.6,5.2,12.6,5.2c7.9,0,12.6-1.8,12.6-5.2c0-3.1-4.7-5.1-12.6-5.1
				C1068.9,992.6,1064.3,994.5,1064.3,997.7z"/>
			<path d="M1160.4,1019.1h-19.9v17.4h-4.2v-17.4h-19.7v-3.6h43.7V1019.1z M1158.2,1006.8l-1.7,3.5c-7.4-1.2-14.8-5.4-17.9-11.3
				c-3.1,5.9-10.5,10-17.9,11.3l-1.7-3.5c8.6-1.2,17.4-7,17.4-13.8v-2.8h4.4v2.8C1140.7,999.8,1149.6,1005.6,1158.2,1006.8z"/>
			<path d="M43.3,1080c0,6.6-5.3,11.1-12.6,11.1c-7.3,0-12.6-4.5-12.6-11.1c0-6.7,5.3-11.2,12.6-11.2
				C38,1068.7,43.3,1073.3,43.3,1080z M40.1,1109.4c4.5-2.8,7-7.6,7-11.3v-2.6h4.2v2.6c0,4.9,3.6,9.9,9.8,12l-2.1,3.1
				c-4.8-1.7-8.2-5-9.8-9.1c-1.5,3.9-4.4,7.6-8.8,9.4c-4.7-1.8-7.6-5.3-9.1-9.3c-1.7,3.9-5,7.2-9.6,9l-2.2-3.1c6-2.3,9.7-7.4,9.8-12
				v-2.6h4.1v2.6C33.3,1102.3,35.5,1106.8,40.1,1109.4z M22.3,1080c-0.1,4.4,3.5,7.6,8.4,7.6c4.9-0.1,8.4-3.2,8.4-7.6
				c0-4.5-3.6-7.7-8.4-7.6C25.8,1072.3,22.3,1075.5,22.3,1080z M56.6,1093.3h-4.2v-27.4h4.2V1093.3z"/>
			<path d="M108.6,1093.8H64.7v-3.5h43.9V1093.8z M103.8,1112.7H70.4v-13.9h4.2v10.4h29.2V1112.7z M103.6,1083.8H70.7v-16.2h4.2
				v12.8h28.6V1083.8z"/>
			<path d="M170.1,1091.7h-43.6v-3.5h18.1v-9.3h4.2v9.3h21.4V1091.7z M164.9,1105c0,5.5-6.5,8.7-16.8,8.7c-10.2,0-16.8-3.2-16.8-8.7
				c0-5.6,6.5-8.8,16.8-8.8C158.4,1096.2,164.9,1099.4,164.9,1105z M164.5,1072.4c0,3.9,0,7.8-1.3,12.7l-4.2-0.5
				c1.3-5,1.3-8.5,1.3-12.2v-0.6h-28.7v-3.5h32.9V1072.4z M135.5,1105c-0.1,3.3,4.9,5.4,12.6,5.4c7.7,0,12.6-2.1,12.6-5.4
				c-0.1-3.4-5-5.5-12.6-5.6C140.4,1099.5,135.4,1101.6,135.5,1105z"/>
			<path d="M176,1095.4l-1.8-3.4c11.5-3.6,19-10.4,19.9-18.9h-17.9v-3.6h22.5C198.7,1082,189.8,1091.1,176,1095.4z M213.8,1112.8
				h-32.3v-15.4h4.2v11.8h28.1V1112.8z M211.6,1080.5h7.2v3.6h-7.2v16.9h-4.3v-35.1h4.3V1080.5z"/>
			<path d="M265.6,1090.1h-43.7v-3.5h43.7V1090.1z M260.7,1075c0,5.4-6.3,8.4-16.9,8.4c-10.7-0.1-17-3-17-8.4c0-5.3,6.3-8.3,17-8.3
				S260.7,1069.7,260.7,1075z M259.9,1105h-28.5v5h29.9v3.3h-34.1v-11.4h28.5v-4.4h-28.6v-3.2h32.8V1105z M231.1,1075
				c-0.1,3.3,4.6,5.2,12.6,5.2c7.9,0,12.6-1.8,12.6-5.2c0-3.1-4.7-5.1-12.6-5.1C235.7,1069.9,231.1,1071.9,231.1,1075z"/>
			<path d="M307.9,1100l-2.6,3.1c-4.7-2.8-8.1-8-9.7-14.1c-1.8,6.6-5.2,12.2-10,15.3l-2.7-3.2c6.7-4,10.6-12.7,10.6-21.5v-4.5h-9.2
				v-3.5h22.1v3.5h-8.8v4.5C297.6,1087.9,301.3,1096.1,307.9,1100z M314.8,1111.4h-4v-24.7h-8.1v-3.5h8.1v-16.1h4V1111.4z
				 M324.5,1113.8h-4v-48h4V1113.8z"/>
			<path d="M374.9,1091.7h-43.6v-3.5h18.1v-9.3h4.2v9.3h21.4V1091.7z M369.7,1105c0,5.5-6.5,8.7-16.8,8.7c-10.2,0-16.8-3.2-16.8-8.7
				c0-5.6,6.5-8.8,16.8-8.8C363.2,1096.2,369.7,1099.4,369.7,1105z M369.4,1072.4c0,3.9,0,7.8-1.3,12.7l-4.2-0.5
				c1.3-5,1.3-8.5,1.3-12.2v-0.6h-28.7v-3.5h32.9V1072.4z M340.3,1105c-0.1,3.3,4.9,5.4,12.6,5.4s12.6-2.1,12.6-5.4
				c-0.1-3.4-5-5.5-12.6-5.6C345.2,1099.5,340.3,1101.6,340.3,1105z"/>
			<path d="M407.7,1074.4h-28.6v-3.5h12.2v-5.4h4.2v5.4h12.2V1074.4z M404.9,1085c-0.1,5.1-4.6,8.4-11.5,8.4c-7,0-11.6-3.3-11.5-8.4
				c-0.1-5.1,4.6-8.4,11.5-8.4C400.3,1076.6,404.9,1079.9,404.9,1085z M385.9,1085c-0.1,3.1,3,5.2,7.5,5.2c4.5,0,7.5-2.1,7.6-5.2
				c-0.1-3.1-3.1-5.2-7.6-5.1C388.8,1079.8,385.8,1081.9,385.9,1085z M390.3,1101h21.9v-5.1h4.2v17.3h-30.3v-17.3h4.2V1101z
				 M412.2,1109.8v-5.4h-21.9v5.4H412.2z M416.4,1078.2h7.2v3.6h-7.2v12h-4.2v-27.9h4.2V1078.2z"/>
			<path d="M434,1097.8c7.3,0,14.9-0.6,22.9-2.3l0.6,3.6c-8.5,1.8-16.1,2.4-23.8,2.4h-3.9v-30.9h4.2V1097.8z M466.2,1113.8H462v-48
				h4.2V1113.8z"/>
			<path d="M498.9,1074.1h-18.2v24.3c8.7,0,14.8-0.4,22-1.7l0.5,3.7c-7.5,1.3-13.8,1.6-22.9,1.6h-3.8v-31.3h22.4V1074.1z
				 M511.6,1084.9h8v3.6h-8v25.5h-4.2v-48.1h4.2V1084.9z"/>
			<path d="M523.8,1106.3c-0.1-1.9,1.6-3.5,3.5-3.5c1.9,0,3.5,1.6,3.5,3.5c0,1.9-1.6,3.5-3.5,3.5
				C525.4,1109.8,523.8,1108.2,523.8,1106.3z"/>
			<path d="M39.6,1231.1h-3.2v20.4c1.3-0.1,2.5-0.3,3.6-0.4l0.4,5c-7.6,1.6-17.5,1.8-23.6,1.8l-0.8-5.7l4.2-0.1v-21h-3.2v-5.6h22.7
				V1231.1z M30.2,1252v-20.8h-3.9v20.9L30.2,1252z M59.1,1269.1h-6.6v-24.6h-4v22.2H42v-45.9h6.5v18.1h4V1220h6.6V1269.1z"/>
			<path d="M93.8,1244.9l-3.8,5.3c-5.2-2-8.7-5.9-10.7-10.7c-2.2,5.2-6,9.2-11.5,11.3l-3.7-5.4c8-2.9,11.7-9.8,11.7-16.9v-5.7h7v5.7
				C82.7,1235.3,86,1242,93.8,1244.9z M106.7,1268.2H73V1253h7v9.8h26.8V1268.2z M105.7,1256.5h-6.9v-15h-8.4v-5.6h8.4v-3.9h-8.4
				v-5.6h8.4v-6.4h6.9V1256.5z"/>
			<path d="M156.8,1250.6H112v-5.5h44.8V1250.6z M152.3,1231.6c-0.1,6.3-7.1,10.1-17.9,10.1c-10.8,0-17.9-3.9-17.9-10.1
				c0-6.3,7.1-10.1,17.9-10C145.2,1221.5,152.2,1225.3,152.3,1231.6z M151.7,1268.2h-34.3v-14.3h6.9v8.8h27.4V1268.2z M123.7,1231.6
				c-0.1,3.1,3.9,4.6,10.7,4.6c6.8,0,10.7-1.5,10.7-4.6c0-3-3.9-4.6-10.7-4.6C127.6,1227,123.6,1228.6,123.7,1231.6z"/>
			<path d="M198.6,1237.8h8.5V1220h6.8v49.2h-6.8v-25.9h-8.5c-0.7,9.4-5.8,15.2-12.6,15.2c-7.4,0-12.8-6.7-12.7-17.5
				c-0.1-10.7,5.3-17.5,12.7-17.5C192.7,1223.5,197.6,1228.9,198.6,1237.8z M179.9,1240.9c-0.1,7.3,2.5,11.3,6.1,11.3
				c3.7,0,6.1-3.9,6.1-11.3c0-7.3-2.4-11.3-6.1-11.3C182.4,1229.7,179.8,1233.7,179.9,1240.9z"/>
			<path d="M243.9,1243h-15.1v9.5c6.1,0,11.5-0.3,17.6-1.2l0.5,5.6c-7.3,1.2-13.6,1.3-21.1,1.3H222v-20.6h15.2v-8.1h-15.3v-5.4h22.1
				V1243z M261.6,1269.2h-6.9v-19.8h-8.4v-5.7h8.4v-7.7h-8.3v-5.6h8.3V1220h6.9V1269.2z"/>
			<path d="M312.9,1249.4h-18.6v8.5h-7v-8.5h-19.4v-5.5h44.9V1249.4z M308.1,1231.1c-0.1,6.3-7.1,10.1-17.7,10.1
				c-10.7,0-17.8-3.9-17.8-10.1c0-6.2,7.1-10.1,17.8-10.2C301,1221,308.1,1224.9,308.1,1231.1z M307.9,1268.2h-34.6v-14.7h7v9.1
				h27.7V1268.2z M280,1231.1c-0.1,3,4,4.6,10.4,4.6c6.3,0,10.4-1.6,10.4-4.6c0-3.1-4-4.7-10.4-4.7C284,1226.4,280,1228,280,1231.1z
				"/>
			<path d="M332,1250.5l-3-5.4c11.1-3.3,16.5-8.7,17.5-15.9h-14.9v-5.4h22.3C353.9,1237.1,346.9,1245.9,332,1250.5z M372.2,1263.4
				l-2.8,5.4c-7.7-1.3-13.3-4.7-16.2-9.5c-3,4.8-8.6,8.3-16.3,9.5l-2.7-5.4c10.4-1.5,15.6-7.2,15.6-12.8v-1.7h6.8v1.7
				C356.6,1256.3,361.8,1261.9,372.2,1263.4z M369.8,1252.7H363v-14h-8.7v-5.6h8.7v-12.9h6.9V1252.7z"/>
			<path d="M403.6,1240.9c0,10.8-5.5,17.5-12.9,17.5c-7.6,0-13.1-6.7-13-17.5c-0.1-10.7,5.4-17.5,13-17.5
				C398.1,1223.5,403.6,1230.3,403.6,1240.9z M384.3,1240.9c0,7.3,2.5,11.3,6.4,11.3c3.7,0,6.3-3.9,6.3-11.3
				c0-7.3-2.5-11.3-6.3-11.3C386.8,1229.7,384.3,1233.7,384.3,1240.9z M417.3,1269.2h-7V1220h7V1269.2z"/>
			<path d="M462.8,1240.9c-0.1,10.8-5.4,17.5-12.9,17.5s-13-6.7-12.9-17.5c-0.1-10.7,5.4-17.5,12.9-17.5S462.8,1230.3,462.8,1240.9z
				 M443.6,1240.9c0,7.3,2.5,11.3,6.3,11.3c3.8,0,6.3-3.9,6.4-11.3c-0.1-7.3-2.5-11.3-6.4-11.3
				C446.1,1229.7,443.6,1233.7,443.6,1240.9z M475.4,1238.5h7.2v5.7h-7.2v24.9h-6.9V1220h6.9V1238.5z"/>
			<path d="M493.9,1251.1c6.6-0.1,13.8-0.7,21-2.1l0.9,5.7c-8.6,1.8-16.7,2.4-24.3,2.3h-4.3v-32.3h6.8V1251.1z M525.7,1269.1h-6.9
				V1220h6.9V1269.1z"/>
			<path d="M556.9,1243.2h-15.8v8.9c7.1,0,13.1-0.4,19.6-1.5l0.6,5.5c-7.5,1.3-14.2,1.7-22.9,1.7h-4.2v-20.1H550v-8h-15.9v-5.6h22.7
				V1243.2z M570.9,1238.6h7.2v5.7h-7.2v25h-6.8V1220h6.8V1238.6z"/>
			<path d="M585.6,1275.5h-5.7l2.7-15.4h7.7L585.6,1275.5z"/>
			<path d="M61.5,1329.5H42.2v17h-6.9v-17H16.5v-5.6h44.9V1329.5z M56.7,1318.2H22.1v-18.7H29v13.2h27.7V1318.2z"/>
			<path d="M103.8,1304.6c0,4.6,0,9.6-1.2,16.5h6.5v5.6H89.9v19.9H83v-19.9H64.3v-5.6h31.3c1.2-6.3,1.3-11.1,1.3-15.4H69.4v-5.5
				h34.4V1304.6z"/>
			<path d="M120.4,1328.6c6.3-0.1,13-0.7,20.1-2.1l0.7,5.7c-8.2,1.7-16.2,2.1-23.4,2.1h-4.3v-32.3h6.9V1328.6z M157.7,1321.6h-7
				v24.8h-6.9v-49h6.9v18.6h7V1321.6z"/>
			<path d="M217.3,1322.8h-44.8v-5.4h44.8V1322.8z M213.2,1304.3h-13.8c1.5,3,6.7,5.8,15.9,6.4l-2.2,5.3c-9.1-0.7-15.4-3.5-18.3-7.7
				c-2.9,4.1-9.2,7-18.2,7.7l-2.2-5.3c9.1-0.5,14.3-3.4,15.8-6.4h-13.7v-5.4h36.6V1304.3z M211.8,1338h-27.3v3h28.6v5.2h-35.4v-12.9
				H205v-2.7h-27.3v-5h34.1V1338z"/>
			<path d="M223.4,1323.1l-2.4-5.6c12.1-2.2,17.2-6.9,17.9-12.8h-15.3v-5.6h22.9C246.4,1312.6,238.9,1320,223.4,1323.1z
				 M261.4,1337.3h-25.9v3.3h27.2v5.3h-34.2v-13.6h25.9v-3h-26v-5.3h33V1337.3z M261.4,1322.1h-6.9v-24.7h6.9V1322.1z"/>
			<path d="M325.5,1329.7h-19.1v16.8h-6.8v-16.8h-18.9v-5.6h44.8V1329.7z M323.9,1314.8l-2.7,5.6c-8.6-1.2-14.9-5.2-18.1-10.5
				c-3.2,5.3-9.5,9.3-18,10.5l-2.8-5.6c11.2-1.4,17.1-7.8,17.1-13.6v-2.4h7.2v2.4C306.8,1307,312.7,1313.4,323.9,1314.8z"/>
			<path d="M368.8,1311.7c0,6.9-5.8,11.7-13.4,11.7c-7.7,0-13.4-4.9-13.4-11.7c0-7,5.8-11.8,13.4-11.8
				C363,1299.9,368.8,1304.7,368.8,1311.7z M364.7,1339.6c4-2.9,5.8-7.1,5.8-10.7v-1.7h6.8v1.7c-0.1,5.1,2.7,9.9,9.2,11.9l-3.3,5
				c-4.7-1.6-7.8-4.6-9.4-8.4c-1.6,3.8-4.5,7.1-8.9,8.8c-4.6-1.7-7.5-4.9-9.1-8.6c-1.7,3.7-4.7,6.6-9.2,8.2l-3.4-5
				c6.5-2.2,9.2-7.1,9.2-11.9v-1.7h6.7v1.7C359.1,1332.8,360.7,1336.9,364.7,1339.6z M348.7,1311.7c-0.1,3.7,2.8,6,6.7,6
				c3.8,0,6.6-2.3,6.6-6c0-3.8-2.8-6-6.6-6C351.4,1305.7,348.6,1307.9,348.7,1311.7z M382.3,1325.1h-6.9v-27.7h6.9V1325.1z"/>
			<path d="M433.8,1326.8h-44.9v-5.4h44.9V1326.8z M429.1,1345.4h-35.1v-14.6h6.9v9.1h28.2V1345.4z M428.8,1316.1h-34.3v-17h6.9
				v11.7h27.5V1316.1z"/>
			<path d="M452.9,1327.8l-3-5.4c11.1-3.3,16.5-8.7,17.5-15.9h-14.9v-5.4h22.3C474.9,1314.4,467.8,1323.2,452.9,1327.8z
				 M493.1,1340.8l-2.8,5.4c-7.7-1.3-13.3-4.7-16.2-9.5c-3,4.8-8.6,8.3-16.3,9.5l-2.7-5.4c10.4-1.5,15.6-7.2,15.6-12.8v-1.7h6.8v1.7
				C477.6,1333.6,482.7,1339.2,493.1,1340.8z M490.8,1330h-6.9v-14h-8.7v-5.6h8.7v-12.9h6.9V1330z"/>
			<path d="M524.8,1311.1c0,6.7-5.8,11.5-13.4,11.5c-7.7,0-13.4-4.8-13.4-11.5c0-6.9,5.8-11.7,13.4-11.7
				C519,1299.4,524.8,1304.2,524.8,1311.1z M504.7,1311.1c-0.1,3.7,2.8,5.8,6.7,5.8c3.8,0,6.6-2.2,6.6-5.8c0-3.7-2.8-5.9-6.6-5.9
				C507.4,1305.1,504.6,1307.3,504.7,1311.1z M512.2,1330.5h19.2v-4.6h6.9v20h-32.9v-20h6.8V1330.5z M531.4,1340.4v-4.5h-19.2v4.5
				H531.4z M538.3,1323.7h-6.9v-26.4h6.9V1323.7z"/>
			<path d="M554.3,1328.4c6.6-0.1,13.8-0.7,21-2.1l0.9,5.7c-8.6,1.8-16.7,2.4-24.3,2.3h-4.3v-32.3h6.8V1328.4z M586.2,1346.4h-6.9
				v-49.1h6.9V1346.4z"/>
			<path d="M617.6,1307.4h-16.2v21.5c7.1-0.1,13-0.4,19.5-1.6l0.8,5.8c-7.6,1.3-14.3,1.5-23,1.5h-4.2v-32.7h23V1307.4z
				 M631.4,1315.6h7.2v5.6h-7.2v25.4h-6.9v-49.2h6.9V1315.6z"/>
			<path d="M642.2,1337.4c-0.1-2.5,2-4.5,4.5-4.5c2.4,0,4.5,2,4.5,4.5c0,2.5-2.1,4.5-4.5,4.5C644.2,1342,642.2,1339.9,642.2,1337.4z
				"/>
		</g>
	</g>
</g>
</svg>
